<svg width="106" height="56" viewBox="0 0 106 56" fill="none" xmlns="http://www.w3.org/2000/svg">
<g clip-path="url(#clip0_1348_266)">
<path fill-rule="evenodd" clip-rule="evenodd" d="M58.4717 44.0583V55.8436H61.365V50.4272L61.9619 50.4384V55.8437H64.888V44.0584H61.9619V48.431H61.365V44.0584L58.4717 44.0583Z" fill="black" stroke="#FDEE21" stroke-width="0.313414"/>
<path fill-rule="evenodd" clip-rule="evenodd" d="M68.4891 44.0582H65.6709V55.8435H68.4891V44.0582Z" fill="black" stroke="#FDEE21" stroke-width="0.313414"/>
<path fill-rule="evenodd" clip-rule="evenodd" d="M68.9502 44.0583L71.1764 55.8436H74.5365L76.7628 44.0583H73.7713L73.0339 49.101C72.9724 49.2941 72.7649 49.2941 72.7278 49.101L71.9908 44.0581L68.9502 44.0583Z" fill="black" stroke="#FDEE21" stroke-width="0.313414"/>
<path fill-rule="evenodd" clip-rule="evenodd" d="M82.9553 44.0582H77.3613V55.8435H82.9553V52.7532L79.8449 52.7267L79.8449 51.4019H81.3267V48.3338H79.8449L79.8449 47.1485H82.9553V44.0582Z" fill="black" stroke="#FDEE21" stroke-width="0.313414"/>
<path fill-rule="evenodd" clip-rule="evenodd" d="M52.7467 8.31817C52.2755 7.02781 36.0682 0.726949 35.861 1.41873C32.8849 2.19453 31.6737 5.62476 29.6265 7.7975L25.0803 7.53711C23.0776 10.1125 22.0267 12.7437 22.7423 15.4785C25.3091 18.9561 28.2887 21.9153 30.1459 26.2836C30.2927 28.3425 39.0571 26.4995 40.9357 26.0919C38.3695 27.9288 36.1347 30.7761 37.0951 38.9766C37.9718 42.8274 38.5714 47.1269 46.3473 51.4823C47.3709 52.0557 49.4888 52.7172 50.7985 53.1994C52.051 53.7739 53.5156 54.01 57.6472 52.7465C60.0381 51.7159 62.6195 51.0951 64.9592 50.0671L62.147 50.1991C58.2745 50.2833 55.2848 50.5722 54.3627 49.4902L50.7987 43.3375L52.8765 39.3017C55.7521 39.5967 56.7066 41.9287 59.2412 42.8167L62.2286 40.6036C70.9058 45.7257 74.3579 37.3574 75.3473 30.8399C75.2417 28.1881 69.6058 31.6716 69.9474 30.4317C70.0798 27.5812 67.7563 23.8519 66.2551 20.946L67.9925 14.2232C68.7808 13.521 64.3429 6.04288 60.719 5.11032C57.5394 4.29198 52.7465 8.31817 52.7465 8.31817L52.7467 8.31817Z" fill="#FDEE21"/>
<path fill-rule="evenodd" clip-rule="evenodd" d="M67.0017 22.6058C67.0329 23.3279 67.0294 24.2061 67.0991 24.7538C67.0871 25.1717 66.7739 25.187 66.5146 25.2746L68.2032 25.8929C68.5384 26.4571 68.8079 27.0212 69.08 27.5854C69.3956 28.9731 69.1601 29.0127 68.9501 29.115C68.3373 29.1213 67.7263 29.1224 67.156 29.0011C67.4115 29.136 67.4677 29.2343 67.4947 29.407C67.5446 29.7255 67.3395 30.1605 67.0017 30.5796C67.5011 30.8567 68.4116 31.1278 69.0881 31.3851L69.8593 29.6683C69.51 27.1462 68.451 24.8217 67.0017 22.6058Z" fill="#C8C037"/>
<path fill-rule="evenodd" clip-rule="evenodd" d="M70.1533 31.0653C71.0898 31.4557 72.3836 31.3412 74.1774 30.4168C74.4441 30.2271 74.6926 30.3405 74.2152 30.6525C71.8625 32.7637 70.7363 31.7076 70.1533 31.0653Z" fill="#C8C037"/>
<path fill-rule="evenodd" clip-rule="evenodd" d="M74.3568 30.1401C74.635 30.6728 74.4665 31.106 74.3731 31.5559C74.0826 33.8444 73.3695 35.6538 71.9701 37.5444C67.4187 44.8619 62.8236 40.2832 59.16 37.3033L57.6446 41.1006C57.5642 41.4334 57.2296 41.6926 59.5963 42.7346L62.0073 41.0316C71.202 48.0276 77.7177 31.2391 74.3566 30.1403L74.3568 30.1401Z" fill="#C8C037"/>
<path fill-rule="evenodd" clip-rule="evenodd" d="M60.2684 36.679C59.6481 36.7233 57.8019 37.351 57.7197 37.7146L58.5693 36.4489L60.2684 36.679Z" fill="#C8C037"/>
<path fill-rule="evenodd" clip-rule="evenodd" d="M59.0625 28.9198C59.1762 28.9198 59.7218 29.0663 59.6632 29.0337C59.5795 28.9871 59.6539 29.7987 59.8256 30.2216L59.1599 31.67C60.435 30.1994 62.4512 30.2973 64.3229 30.1077L63.43 29.5544C63.5851 29.037 63.4025 28.6277 63.3163 28.1875L59.0625 28.9198Z" fill="#C8C037"/>
<path fill-rule="evenodd" clip-rule="evenodd" d="M62.1955 24.5589C60.8274 24.9783 59.5179 25.6635 58.6387 27.1241C59.3094 24.7166 59.4461 24.808 59.6627 24.6891C60.6008 24.2695 61.3691 24.531 62.1955 24.5589Z" fill="#C8C037"/>
<path fill-rule="evenodd" clip-rule="evenodd" d="M54.89 52.7765C53.2358 54.6018 49.5447 52.6383 46.4793 51.6373C38.6901 46.6843 37.1684 42.0215 37.0627 37.4473C36.6622 30.895 38.6742 27.0878 41.2191 26.1864C39.5348 29.4332 38.7496 35.2614 39.5306 39.5954C40.1609 42.0065 40.174 46.0732 44.2083 48.25C46.1839 49.3621 45.6488 50.228 46.9847 51.2696C48.4486 52.4111 52.5303 53.4963 54.89 52.7765L54.89 52.7765Z" fill="#FCF6A0"/>
<path fill-rule="evenodd" clip-rule="evenodd" d="M57.3615 22.4953C54.5607 18.5236 50.6216 17.0327 46.1794 16.8698C47.0697 16.5796 47.9599 16.4285 48.8502 15.9992C49.0682 15.7701 48.9969 15.3671 48.9151 14.9578C44.6392 13.8413 41.9405 12.4614 38.5244 11.1823L47.7467 13.3954C53.9745 13.632 53.4397 15.1696 57.3619 22.4954L57.3615 22.4953Z" fill="#FCF6A0"/>
<path fill-rule="evenodd" clip-rule="evenodd" d="M60.3601 20.5801C58.2903 17.6253 56.2828 14.0393 53.5578 11.7587C46.9798 8.78964 40.4727 6.58463 32.8467 4.57811L35.2806 1.44824C43.3729 3.29545 50.9739 6.38651 57.7823 11.4821C58.9342 14.3946 59.7023 17.311 60.3595 20.5797L60.3601 20.5801Z" fill="#FCF6A0"/>
<path fill-rule="evenodd" clip-rule="evenodd" d="M64.5332 15.3588C64.5332 15.3588 63.3728 12.7555 62.8079 11.7614C61.4973 10.309 60.8346 7.60254 58.1504 6.32727C58.9993 6.55653 59.5803 6.28337 61.3134 7.85456L64.0432 13.0327L64.5332 15.3588Z" fill="#FCF6A0"/>
<path fill-rule="evenodd" clip-rule="evenodd" d="M65.9763 19.8687C66.2439 17.6132 66.7521 13.9953 66.1689 12.5659C64.5464 10.3889 62.9123 8.13868 61.2776 6.04965C61.0069 5.79769 60.8119 5.45574 60.5986 5.18896C62.897 5.78443 65.2956 7.38249 68.5302 13.6914L65.9763 19.8687Z" fill="#FCF6A0"/>
<path fill-rule="evenodd" clip-rule="evenodd" d="M56.3139 20.1349C55.3985 19.4144 54.5826 16.8661 53.1954 16.3362C51.9114 16.2288 51.4406 15.8249 49.7522 16.1689C50.3646 15.862 50.9427 15.4694 51.5937 15.2592C52.0346 15.1552 52.4482 15.2705 52.8689 15.3285C52.9728 15.2794 53.0409 15.2183 53.0155 15.126C51.3159 14.0757 47.8292 14.0607 45.4756 13.4612C48.2072 13.5526 51.2296 13.4012 53.2825 14.0595C54.9333 15.5245 55.4696 18.2835 56.3139 20.1349Z" fill="black"/>
<path fill-rule="evenodd" clip-rule="evenodd" d="M61.3193 7.84595C61.6983 7.88037 63.7377 11.1064 63.8336 11.6432C64.0032 12.8167 64.4214 14.1321 64.5339 15.3599C64.198 14.1824 63.832 13.0049 63.3744 11.8273C63.2406 11.5031 62.9024 10.77 61.9623 9.73312C61.5246 9.00229 61.4301 8.42785 61.3194 7.84601L61.3193 7.84595Z" fill="black"/>
<path fill-rule="evenodd" clip-rule="evenodd" d="M68.2309 25.4167H67.3584L68.3228 25.6699L68.2309 25.4167Z" fill="black"/>
<path fill-rule="evenodd" clip-rule="evenodd" d="M62.2767 24.5453C61.3993 24.4375 60.499 24.4232 59.6216 24.616C59.2639 25.0964 59.2393 25.585 59.083 26.0366C60.1496 24.861 60.5729 24.7891 62.2767 24.5453Z" fill="black"/>
<path fill-rule="evenodd" clip-rule="evenodd" d="M74.2441 30.6124C73.7558 31.0021 73.707 31.3689 72.2633 31.8085C71.2105 32.0575 70.6157 31.6355 70.1201 31.0681C70.8714 31.2833 70.9915 31.8509 73.0061 31.2145L74.2441 30.6124Z" fill="black"/>
<path fill-rule="evenodd" clip-rule="evenodd" d="M69.8688 30.8563C69.5173 31.8226 69.1385 32.7991 68.7566 33.7041C67.8471 34.7707 68.2347 34.1629 66.8732 35.8196C67.3088 35.1475 67.8754 34.5017 68.1721 33.8017C68.3804 33.3408 68.6398 32.8518 68.7546 32.4423C68.3936 32.2621 67.6547 32.2478 67.5544 32.3125C66.3439 33.0265 66.1255 33.782 65.4119 34.5178C65.9292 33.6909 66.371 32.7884 66.9706 32.0442C67.0389 31.9476 67.4829 31.9289 67.7558 31.872C67.3317 31.7992 66.5467 31.6468 66.4835 31.6537C65.6938 31.8434 65.2513 32.5313 64.665 32.9881C65.0924 32.371 65.4861 31.7285 66.0289 31.198C66.0825 31.1356 67.5495 31.2642 68.3098 31.5675L68.3249 31.87L68.7565 32.0442L69.0812 31.2306L69.8688 30.8563Z" fill="black"/>
<path fill-rule="evenodd" clip-rule="evenodd" d="M60.2889 36.682C60.0941 36.6154 58.3731 36.3941 58.3731 36.4461C57.7123 36.9163 57.612 37.3663 57.6262 37.756C58.7256 36.6746 58.6845 36.6715 60.2889 36.682Z" fill="black"/>
<path fill-rule="evenodd" clip-rule="evenodd" d="M58.9825 28.9038C58.9825 28.9038 60.2244 28.7228 60.2002 28.8387C60.1102 29.2696 60.3522 30.3197 60.3788 30.1732L59.6806 30.7427C61.1428 30.0076 62.682 30.1553 64.243 30.043C64.243 30.043 62.9286 29.6801 63.009 29.6687C63.3022 29.6271 62.931 28.298 62.8304 28.2692C63.0804 28.1846 63.3246 28.1208 63.5772 28.0577C61.6977 27.5658 60.6108 27.8556 58.9824 28.9039L58.9825 28.9038Z" fill="black"/>
<path fill-rule="evenodd" clip-rule="evenodd" d="M69.73 29.8309L69.454 29.9692C69.4148 29.1606 68.5464 29.22 67.8141 29.2125L67.2134 29.066C67.396 29.2351 67.9607 29.2218 67.7329 29.5868C67.5412 29.6892 67.4531 30.1288 67.3433 30.4981L67.0186 30.5143C67.5922 30.7385 68.1244 30.935 68.7558 31.1978L69.1292 31.2548L70.0222 30.7747L69.73 29.8309Z" fill="black"/>
<path fill-rule="evenodd" clip-rule="evenodd" d="M61.4985 29.2858C61.3587 29.0093 60.6555 29.0486 60.5039 29.2275C60.3807 29.3729 60.4962 30.3056 60.6542 30.1483C60.8825 29.9476 61.1808 29.8636 61.5391 29.8798C61.5842 29.7075 61.5682 29.5214 61.4985 29.2858Z" fill="white"/>
<path fill-rule="evenodd" clip-rule="evenodd" d="M68.2425 30.6755C68.3086 30.6272 68.4484 30.1595 68.4032 30.0196C68.3108 29.6894 67.6569 29.7589 67.6569 29.7589C67.4974 29.8528 67.3575 30.3676 67.4158 30.5374C67.4437 30.6812 68.1376 30.727 68.2425 30.6755Z" fill="white"/>
<path fill-rule="evenodd" clip-rule="evenodd" d="M40.2793 46.8113L40.6924 46.8517C43.1412 48.054 47.1732 49.8368 53.0105 48.8788L53.9265 50.32C51.3557 51.5693 48.5907 51.2818 45.9998 51.3694L40.2793 46.8113Z" fill="black"/>
<path fill-rule="evenodd" clip-rule="evenodd" d="M36.7627 37.3061L37.9894 42.4558C41.2735 44.5087 46.8835 46.8601 51.5597 46.6703L50.5263 44.2992C40.765 42.2263 39.9394 39.6059 36.7629 37.3057L36.7627 37.3061Z" fill="black"/>
<path fill-rule="evenodd" clip-rule="evenodd" d="M39.8159 26.7577C40.4154 30.7484 41.2157 33.7739 44.6858 36.3081C46.8127 37.8377 48.9239 39.3609 51.4918 40.6179C51.4918 40.6179 51.2666 41.7895 51.0785 41.7686C43.4365 40.9198 37.8418 34.5832 37.1641 31.6889C37.8205 29.4688 38.7621 28.0821 39.8156 26.7577H39.8159Z" fill="black"/>
<path fill-rule="evenodd" clip-rule="evenodd" d="M43.4894 24.4967C44.5078 28.9196 46.9359 33.3993 49.3493 37.4632C50.234 38.5858 50.4655 39.0811 51.8291 39.7646C53.6722 40.3482 54.9755 40.1992 56.3133 40.1114C55.9467 39.433 55.6209 38.7238 55.2 38.0862C52.2045 35.7172 53.5889 33.5603 54.3845 32.1947C52.7189 31.7739 50.5119 30.8793 50.2079 29.7028C49.7191 25.8973 49.9673 24.6901 50.4565 22.7355C48.201 23.2111 45.9154 23.6823 43.4893 24.4967L43.4894 24.4967Z" fill="black"/>
<path fill-rule="evenodd" clip-rule="evenodd" d="M35.2146 1.00354C34.4733 1.48783 33.7591 2.1803 32.9907 2.96735C31.717 4.28582 30.8702 5.57196 29.5737 6.52548C29.3144 6.74907 28.5867 7.10916 27.6718 7.16256C27.2409 7.18407 26.9601 7.25539 26.1683 7.15596C25.4699 6.77781 24.8064 7.02372 24.1589 7.79824C23.4488 8.81935 22.5496 10.7583 22.1756 11.9789C21.405 15.0917 23.3698 17.6564 25.254 19.633C26.9303 21.2706 27.8967 22.2939 28.5849 23.7951C29.106 24.7688 29.492 26.1051 29.91 27.0419C30.0607 27.339 30.0293 27.3374 30.435 27.4269C31.3109 27.6139 32.5259 27.6153 33.6076 27.7083C34.0756 27.7148 34.7183 27.6974 35.3272 27.6339C36.1664 27.4755 37.1522 27.3202 37.9785 27.0345C38.7859 26.8356 39.5053 26.5603 40.1539 26.3068C40.0702 26.5906 39.4524 26.8639 39.2208 27.2236C37.0226 30.3702 36.4205 33.1702 36.8032 37.588C37.0197 39.5462 37.4691 41.1695 38.1472 43.0267C38.4574 43.8767 39.1177 45.2227 39.7505 46.1168C41.6321 48.7755 45.8415 52.1897 51.7014 53.5039C52.7237 53.6437 53.8839 53.5691 54.9751 53.2786C57.8673 52.4019 63.7617 50.3284 63.7617 50.3284C63.7617 50.3284 58.5294 50.7612 56.1332 50.5243C55.5784 50.4376 54.9671 50.4081 54.5807 50.0301C54.5158 49.9464 54.2803 49.472 54.4324 49.4678C54.6399 49.462 55.2355 49.2148 56.1552 49.1328C54.1918 48.9214 54.2198 48.9239 54.0765 48.5662C53.8536 48.0111 53.5124 47.2522 53.1612 46.5883C54.024 46.661 55.9342 46.7683 56.5824 46.0992C56.5824 46.0992 55.4521 46.2297 54.4531 46.1126C54.1166 46.0731 53.5431 45.8684 53.3709 45.8052C52.9224 45.6305 52.5532 45.5763 52.4671 45.4624C52.3114 45.0661 52.2059 44.9328 52.0179 44.4018C51.7634 43.6987 51.7432 42.9145 51.6947 42.1967C52.3482 43.0021 53.1808 43.6802 54.2831 44.0264C54.2973 43.9966 55.7131 44.6419 56.7414 44.3101L56.9546 44.2413C56.9546 44.2604 56.2733 44.301 56.0234 44.1773C53.9323 43.2885 53.6175 42.5104 53.2798 42.124L52.3768 40.7715C52.6514 40.2239 52.8067 40.2031 53.1706 40.198C54.2712 40.3203 54.7502 40.4143 55.4199 40.2527C55.8724 41.1841 55.9947 42.121 57.025 42.7988C60.4573 43.8176 61.2031 42.4962 62.0344 41.3286C64.5041 43.141 68.5244 43.6999 71.3166 41.3601C74.8663 37.2527 75.9901 30.7775 75.6753 30.4077C75.232 29.6556 74.6504 28.88 74.1509 28.9872C72.3708 29.4732 71.7144 30.3763 69.9505 30.1703C70.1605 30.1584 70.5138 30.1527 70.5165 30.1327C70.6524 28.639 70.5056 27.9163 70.44 27.7923C69.9047 26.6118 69.2018 25.3695 68.7119 24.4385C68.5856 24.2453 68.2147 22.7784 67.5931 22.1989C67.3265 21.9712 66.674 21.371 66.674 21.371L66.6188 22.009C66.6188 22.009 66.8738 22.0475 66.9709 22.4427C67.3389 23.941 69.2129 27.4835 69.3504 27.6532C70.0146 28.7254 69.4179 30.0611 69.9229 30.8104C69.9714 30.9056 70.953 30.8021 71.7139 30.8488C72.965 30.5797 72.9122 30.0283 73.993 29.9455C74.721 29.8896 74.794 31.2569 74.7844 31.363C74.6487 32.8727 74.1895 34.628 73.4866 36.231C72.0254 39.0463 70.3889 41.5749 68.0679 41.9275C65.2369 42.4222 63.7658 41.1845 62.2311 40.3964L61.644 40.8971C59.6495 42.8833 57.2813 42.7068 56.3127 40.1117C55.8306 39.1051 55.2022 38.4881 54.6642 37.6245L51.811 39.6795C51.5735 40.1666 51.2815 40.9347 50.9268 41.7927C50.6801 42.3892 50.4733 43.4137 50.4868 44.265C50.1211 44.8881 51.7536 47.4148 52.7851 48.9518C53.0895 49.4053 53.6577 50.1975 53.6767 50.2469C53.8813 50.7775 54.3293 51.246 54.3565 51.3032C56.2716 53.8009 51.9407 53.2257 51.0463 53.0748C49.2817 52.7936 47.5556 52.0565 45.9332 51.0709C45.839 51.0137 45.7452 50.9557 45.6518 50.8968C43.7236 49.6828 41.9496 48.1295 40.4412 46.5932C39.5417 45.5747 38.6853 43.4871 38.0528 42.0071C37.1048 38.4489 35.7442 32.2813 39.4297 27.6075C39.6633 27.3403 39.9154 26.8956 40.1301 26.8076C41.225 26.0669 42.4141 25.5622 43.6927 25.2819L43.5636 24.453C42.9251 24.5981 40.775 25.3845 40.167 25.7137C38.7845 26.1144 37.6378 26.5329 35.8758 26.9741C35.303 27.0442 34.7396 27.0454 34.1904 26.9708C32.9229 26.7986 30.7624 26.9524 30.6246 26.8244C29.7664 25.6276 29.5314 23.4831 28.7483 22.3354L28.7391 22.324L28.7292 22.3131C28.2727 21.6995 27.7406 21.199 27.2166 20.6784C25.34 18.8139 23.7338 17.0111 23.2842 15.1008C23.1711 14.5367 22.88 13.9525 23.0347 12.2835L23.0376 12.2754L23.0403 12.2672C23.4918 10.7081 24.2263 9.43715 25.4729 8.16341C26.7702 8.18435 28.0542 8.21285 29.0544 8.40391C29.5133 8.48068 30.4676 8.60533 31.4532 8.97249C33.9478 9.90181 37.2441 11.4297 37.2441 11.4297C34.7698 10.0708 32.0031 8.30601 30.256 7.94986C29.9961 7.91306 29.8363 7.79448 29.7591 7.58747C32.3868 6.04356 32.8675 4.22581 34.5959 2.59555C35.3857 2.25172 35.6937 2.0762 36.3648 2.00328C42.5719 2.98472 46.4793 5.45697 49.5703 7.11009C50.8249 7.79233 51.9653 8.30823 53.0546 8.92955C54.0094 9.24361 56.8906 11.4188 57.7338 12.5916C58.5904 14.4002 59.2158 16.3538 59.7862 18.239C60.1952 20.1563 60.554 20.9341 60.554 20.9341C60.554 20.9341 60.2064 19.3304 60.2643 19.0422C60.6247 19.1769 61.4768 19.4429 61.8301 19.4016C61.8301 19.4016 60.2523 18.586 60.0456 17.8652C59.3821 15.5523 58.7168 11.9518 58.5373 11.7641C58.0317 11.1278 55.9232 9.5142 54.6298 8.76779C54.1406 8.48542 53.8762 8.31028 53.8555 8.18614C54.2687 7.76875 54.7789 7.21661 55.2365 6.86577C55.6751 6.52947 56.0744 6.15022 56.6856 5.92326C59.3722 4.71326 60.9085 6.38878 61.273 6.04949C61.273 6.04949 60.695 5.38698 60.9517 5.49604C61.2146 5.63845 62.0715 5.80639 62.1655 5.89384C63.1447 6.6598 65.7046 9.4593 67.2476 12.4132C67.6181 13.1367 67.7688 13.6131 67.5969 14.4844C67.4246 15.3565 67.2912 15.836 67.1033 16.4184C66.9335 16.8077 65.9728 19.4732 65.9766 19.8313C65.783 21.2938 66.6038 23.1248 66.6038 23.1248C66.6116 22.6278 66.5732 22.363 66.6183 22.0076L66.6735 21.3724C66.6735 21.3724 66.6385 21.2035 66.6449 21.1365C66.6865 20.6973 66.7943 20.3281 66.8259 20.0766C67.1344 18.1665 67.6706 16.7915 68.2788 15.1154C68.4596 14.6925 68.6961 14.4572 68.684 14.1352C68.6939 13.5637 68.1826 12.7966 67.813 12.0474C67.4403 11.2903 66.9948 10.4462 66.4099 9.55653C65.0765 7.63911 63.9398 6.13889 61.8584 5.19998C61.276 4.94441 58.9843 4.69454 58.1929 4.84301C57.2329 5.04302 56.4073 5.24026 55.7491 5.66178C54.7133 6.32508 53.8993 7.35205 52.9447 7.95717C50.8327 6.90105 49.8134 6.11064 49.6233 6.00168C48.3681 5.32909 46.8611 4.54858 45.2398 3.8084C44.4625 3.0835 39.6353 1.34972 35.2152 1.00389L35.2146 1.00354ZM62.2306 40.3952C60.9289 39.3777 59.8332 38.3302 59.1109 37.2516C58.8751 38.5201 58.0192 39.4236 57.3577 40.3122C57.226 40.5206 57.1311 40.8048 57.7795 41.7104C57.9543 41.9517 58.5866 41.9929 59.0135 41.9708C58.5792 41.6425 57.9185 41.2953 57.812 40.9944C58.576 41.5145 59.2833 41.664 59.9227 41.5802C60.0688 41.5638 60.2502 41.4089 60.3905 41.1704C60.6755 40.5581 60.8987 40.4106 61.1241 40.2458L61.6437 40.8967L62.2306 40.3952Z" fill="black" stroke="black" stroke-width="0.00696483"/>
</g>
<defs>
<clipPath id="clip0_1348_266">
<rect width="61.1111" height="55" fill="white" transform="translate(22 1)"/>
</clipPath>
</defs>
</svg>
