<svg xmlns="http://www.w3.org/2000/svg" width="871" height="492" viewBox="0 0 871 492" fill="none"><rect width="870.91" height="491" transform="translate(0 0.5)" fill="url(#paint0_linear_14016_12542)"></rect><rect x="192.457" y="210.001" width="486" height="58" fill="white" fill-opacity="0.1"></rect><rect x="192.957" y="210.501" width="485" height="57" stroke="white" stroke-opacity="0.31"></rect><path d="M268.729 250.001H263.621L271.404 227.456H277.547L285.319 250.001H280.211L274.563 232.608H274.387L268.729 250.001ZM268.41 241.139H280.475V244.86H268.41V241.139ZM292.799 227.456V250.001H288.032V227.456H292.799ZM323.788 235.349H318.966C318.878 234.725 318.698 234.171 318.427 233.686C318.155 233.195 317.807 232.776 317.381 232.431C316.955 232.086 316.464 231.822 315.906 231.639C315.355 231.455 314.757 231.364 314.111 231.364C312.945 231.364 311.928 231.653 311.062 232.233C310.196 232.806 309.525 233.642 309.048 234.743C308.571 235.837 308.332 237.165 308.332 238.728C308.332 240.335 308.571 241.686 309.048 242.779C309.532 243.873 310.207 244.699 311.073 245.256C311.939 245.814 312.941 246.093 314.078 246.093C314.717 246.093 315.308 246.009 315.851 245.84C316.401 245.671 316.889 245.425 317.315 245.102C317.741 244.772 318.093 244.372 318.372 243.902C318.658 243.433 318.856 242.897 318.966 242.295L323.788 242.317C323.663 243.352 323.351 244.35 322.852 245.311C322.361 246.265 321.696 247.12 320.86 247.876C320.03 248.625 319.04 249.219 317.887 249.66C316.742 250.093 315.447 250.309 314.001 250.309C311.99 250.309 310.192 249.854 308.607 248.944C307.029 248.034 305.782 246.717 304.864 244.992C303.954 243.267 303.499 241.179 303.499 238.728C303.499 236.27 303.962 234.178 304.886 232.453C305.811 230.729 307.066 229.415 308.651 228.512C310.236 227.602 312.02 227.147 314.001 227.147C315.308 227.147 316.519 227.331 317.634 227.698C318.757 228.065 319.751 228.6 320.617 229.305C321.484 230.002 322.188 230.857 322.731 231.87C323.282 232.883 323.634 234.042 323.788 235.349ZM334.758 250.331C333.048 250.331 331.569 249.968 330.322 249.241C329.081 248.507 328.123 247.487 327.448 246.181C326.773 244.867 326.436 243.344 326.436 241.612C326.436 239.866 326.773 238.339 327.448 237.033C328.123 235.719 329.081 234.699 330.322 233.973C331.569 233.239 333.048 232.872 334.758 232.872C336.468 232.872 337.943 233.239 339.183 233.973C340.431 234.699 341.392 235.719 342.068 237.033C342.743 238.339 343.08 239.866 343.08 241.612C343.08 243.344 342.743 244.867 342.068 246.181C341.392 247.487 340.431 248.507 339.183 249.241C337.943 249.968 336.468 250.331 334.758 250.331ZM334.78 246.698C335.558 246.698 336.207 246.478 336.728 246.038C337.25 245.59 337.642 244.981 337.906 244.21C338.178 243.44 338.314 242.563 338.314 241.579C338.314 240.596 338.178 239.719 337.906 238.948C337.642 238.178 337.25 237.569 336.728 237.121C336.207 236.673 335.558 236.449 334.78 236.449C333.995 236.449 333.334 236.673 332.798 237.121C332.27 237.569 331.87 238.178 331.598 238.948C331.334 239.719 331.202 240.596 331.202 241.579C331.202 242.563 331.334 243.44 331.598 244.21C331.87 244.981 332.27 245.59 332.798 246.038C333.334 246.478 333.995 246.698 334.78 246.698ZM350.819 240.225V250.001H346.13V233.092H350.599V236.075H350.797C351.172 235.092 351.799 234.314 352.68 233.741C353.561 233.162 354.628 232.872 355.883 232.872C357.058 232.872 358.081 233.129 358.955 233.642C359.828 234.156 360.507 234.89 360.991 235.844C361.476 236.791 361.718 237.921 361.718 239.235V250.001H357.028V240.071C357.036 239.036 356.771 238.229 356.236 237.649C355.7 237.062 354.962 236.769 354.023 236.769C353.392 236.769 352.834 236.905 352.35 237.176C351.873 237.448 351.498 237.844 351.227 238.365C350.962 238.879 350.827 239.499 350.819 240.225ZM379.483 237.914L375.189 238.178C375.116 237.811 374.958 237.481 374.716 237.187C374.474 236.886 374.155 236.648 373.758 236.472C373.369 236.288 372.903 236.196 372.36 236.196C371.634 236.196 371.021 236.35 370.522 236.659C370.023 236.96 369.773 237.363 369.773 237.87C369.773 238.273 369.935 238.614 370.258 238.893C370.581 239.172 371.135 239.396 371.92 239.565L374.98 240.181C376.624 240.519 377.85 241.062 378.657 241.811C379.464 242.559 379.868 243.543 379.868 244.761C379.868 245.869 379.542 246.842 378.888 247.678C378.243 248.515 377.355 249.168 376.224 249.638C375.101 250.1 373.806 250.331 372.338 250.331C370.1 250.331 368.317 249.865 366.988 248.933C365.667 247.994 364.893 246.717 364.665 245.102L369.278 244.86C369.417 245.543 369.755 246.064 370.291 246.423C370.826 246.775 371.513 246.952 372.349 246.952C373.171 246.952 373.832 246.794 374.331 246.478C374.837 246.155 375.094 245.741 375.101 245.234C375.094 244.809 374.914 244.46 374.562 244.188C374.21 243.91 373.667 243.697 372.933 243.55L370.004 242.967C368.353 242.636 367.124 242.064 366.317 241.249C365.517 240.435 365.117 239.396 365.117 238.134C365.117 237.048 365.41 236.112 365.997 235.327C366.592 234.541 367.425 233.936 368.496 233.51C369.575 233.085 370.837 232.872 372.283 232.872C374.419 232.872 376.1 233.323 377.325 234.226C378.558 235.128 379.277 236.358 379.483 237.914ZM393.665 242.801V233.092H398.354V250.001H393.852V246.93H393.676C393.294 247.92 392.659 248.717 391.771 249.318C390.89 249.92 389.815 250.221 388.546 250.221C387.415 250.221 386.421 249.964 385.562 249.451C384.704 248.937 384.032 248.207 383.548 247.26C383.071 246.313 382.828 245.179 382.821 243.858V233.092H387.511V243.022C387.518 244.02 387.786 244.809 388.314 245.388C388.843 245.968 389.551 246.258 390.439 246.258C391.004 246.258 391.533 246.13 392.024 245.873C392.516 245.609 392.912 245.22 393.213 244.706C393.521 244.192 393.672 243.557 393.665 242.801ZM406.795 227.456V250.001H402.105V227.456H406.795ZM419.546 233.092V236.615H409.363V233.092H419.546ZM411.674 229.041H416.364V244.805C416.364 245.238 416.43 245.576 416.562 245.818C416.694 246.053 416.878 246.218 417.113 246.313C417.355 246.409 417.634 246.456 417.949 246.456C418.17 246.456 418.39 246.438 418.61 246.401C418.83 246.357 418.999 246.324 419.116 246.302L419.854 249.792C419.619 249.865 419.289 249.95 418.863 250.045C418.437 250.148 417.92 250.21 417.311 250.232C416.181 250.276 415.19 250.126 414.339 249.781C413.495 249.436 412.838 248.9 412.368 248.174C411.898 247.447 411.667 246.53 411.674 245.421V229.041ZM422.6 250.001V233.092H427.29V250.001H422.6ZM424.956 230.912C424.259 230.912 423.661 230.681 423.162 230.219C422.67 229.749 422.424 229.188 422.424 228.534C422.424 227.889 422.67 227.334 423.162 226.872C423.661 226.402 424.259 226.168 424.956 226.168C425.653 226.168 426.248 226.402 426.74 226.872C427.239 227.334 427.488 227.889 427.488 228.534C427.488 229.188 427.239 229.749 426.74 230.219C426.248 230.681 425.653 230.912 424.956 230.912ZM435.736 240.225V250.001H431.047V233.092H435.516V236.075H435.714C436.089 235.092 436.716 234.314 437.597 233.741C438.477 233.162 439.545 232.872 440.8 232.872C441.975 232.872 442.998 233.129 443.872 233.642C444.745 234.156 445.424 234.89 445.908 235.844C446.393 236.791 446.635 237.921 446.635 239.235V250.001H441.945V240.071C441.953 239.036 441.688 238.229 441.153 237.649C440.617 237.062 439.879 236.769 438.94 236.769C438.309 236.769 437.751 236.905 437.267 237.176C436.79 237.448 436.415 237.844 436.144 238.365C435.879 238.879 435.744 239.499 435.736 240.225ZM457.949 256.694C456.43 256.694 455.127 256.485 454.041 256.067C452.962 255.656 452.103 255.094 451.465 254.382C450.826 253.67 450.412 252.871 450.221 251.983L454.558 251.399C454.69 251.737 454.899 252.052 455.186 252.346C455.472 252.639 455.85 252.874 456.32 253.05C456.797 253.234 457.376 253.326 458.059 253.326C459.079 253.326 459.919 253.076 460.58 252.577C461.248 252.085 461.582 251.26 461.582 250.1V247.007H461.383C461.178 247.476 460.87 247.92 460.459 248.339C460.048 248.757 459.519 249.098 458.874 249.362C458.228 249.627 457.457 249.759 456.562 249.759C455.292 249.759 454.136 249.465 453.094 248.878C452.059 248.284 451.234 247.377 450.617 246.159C450.008 244.933 449.703 243.385 449.703 241.513C449.703 239.598 450.015 237.998 450.639 236.714C451.263 235.429 452.092 234.468 453.127 233.829C454.169 233.191 455.31 232.872 456.551 232.872C457.497 232.872 458.29 233.033 458.929 233.356C459.567 233.672 460.081 234.068 460.47 234.545C460.866 235.015 461.171 235.477 461.383 235.932H461.56V233.092H466.216V250.166C466.216 251.605 465.864 252.808 465.159 253.777C464.455 254.746 463.479 255.472 462.231 255.957C460.991 256.448 459.563 256.694 457.949 256.694ZM458.048 246.236C458.804 246.236 459.442 246.049 459.963 245.675C460.492 245.293 460.895 244.75 461.174 244.045C461.461 243.333 461.604 242.482 461.604 241.491C461.604 240.501 461.464 239.642 461.185 238.915C460.906 238.181 460.503 237.613 459.974 237.209C459.446 236.805 458.804 236.604 458.048 236.604C457.277 236.604 456.628 236.813 456.099 237.231C455.571 237.642 455.171 238.215 454.899 238.948C454.628 239.682 454.492 240.53 454.492 241.491C454.492 242.467 454.628 243.311 454.899 244.023C455.178 244.728 455.578 245.275 456.099 245.664C456.628 246.045 457.277 246.236 458.048 246.236ZM489.441 233.94C489.353 233.052 488.975 232.362 488.308 231.87C487.64 231.378 486.733 231.132 485.588 231.132C484.811 231.132 484.154 231.242 483.618 231.463C483.082 231.675 482.671 231.973 482.385 232.354C482.106 232.736 481.967 233.169 481.967 233.653C481.952 234.057 482.036 234.409 482.22 234.71C482.411 235.011 482.671 235.272 483.001 235.492C483.332 235.705 483.713 235.892 484.146 236.053C484.579 236.207 485.042 236.339 485.533 236.449L487.559 236.934C488.542 237.154 489.445 237.448 490.267 237.815C491.089 238.181 491.801 238.633 492.403 239.169C493.005 239.704 493.471 240.335 493.801 241.062C494.138 241.789 494.311 242.622 494.318 243.561C494.311 244.941 493.959 246.137 493.261 247.15C492.572 248.155 491.573 248.937 490.267 249.495C488.968 250.045 487.401 250.32 485.566 250.32C483.746 250.32 482.161 250.041 480.811 249.484C479.468 248.926 478.418 248.1 477.662 247.007C476.914 245.906 476.521 244.544 476.484 242.922H481.097C481.148 243.678 481.365 244.31 481.746 244.816C482.135 245.315 482.653 245.693 483.299 245.95C483.952 246.199 484.689 246.324 485.511 246.324C486.319 246.324 487.02 246.207 487.614 245.972C488.216 245.737 488.682 245.41 489.012 244.992C489.342 244.574 489.508 244.093 489.508 243.55C489.508 243.044 489.357 242.618 489.056 242.273C488.763 241.928 488.33 241.634 487.757 241.392C487.192 241.15 486.499 240.93 485.677 240.732L483.222 240.115C481.321 239.653 479.82 238.93 478.719 237.947C477.618 236.963 477.072 235.639 477.079 233.973C477.072 232.608 477.435 231.415 478.169 230.395C478.91 229.375 479.926 228.578 481.218 228.006C482.51 227.434 483.978 227.147 485.621 227.147C487.295 227.147 488.755 227.434 490.003 228.006C491.258 228.578 492.234 229.375 492.931 230.395C493.628 231.415 493.988 232.597 494.01 233.94H489.441ZM505.142 250.331C503.403 250.331 501.906 249.979 500.651 249.274C499.403 248.563 498.442 247.557 497.767 246.258C497.091 244.952 496.754 243.407 496.754 241.623C496.754 239.884 497.091 238.358 497.767 237.044C498.442 235.73 499.392 234.706 500.618 233.973C501.851 233.239 503.297 232.872 504.955 232.872C506.071 232.872 507.109 233.052 508.071 233.411C509.039 233.763 509.883 234.295 510.603 235.007C511.329 235.719 511.894 236.615 512.298 237.693C512.702 238.765 512.903 240.02 512.903 241.458V242.746H498.625V239.84H508.489C508.489 239.165 508.342 238.567 508.049 238.046C507.755 237.525 507.348 237.117 506.827 236.824C506.313 236.523 505.715 236.372 505.032 236.372C504.32 236.372 503.689 236.538 503.139 236.868C502.596 237.191 502.17 237.627 501.862 238.178C501.554 238.721 501.396 239.326 501.388 239.994V242.757C501.388 243.594 501.543 244.317 501.851 244.926C502.166 245.535 502.61 246.005 503.183 246.335C503.755 246.665 504.434 246.831 505.219 246.831C505.74 246.831 506.218 246.757 506.651 246.61C507.084 246.464 507.454 246.243 507.762 245.95C508.071 245.656 508.305 245.297 508.467 244.871L512.804 245.157C512.584 246.199 512.133 247.109 511.45 247.887C510.775 248.658 509.902 249.26 508.83 249.693C507.766 250.118 506.537 250.331 505.142 250.331ZM515.964 250.001V233.092H520.51V236.042H520.686C520.995 234.993 521.512 234.2 522.239 233.664C522.965 233.121 523.802 232.85 524.749 232.85C524.983 232.85 525.237 232.864 525.508 232.894C525.78 232.923 526.018 232.963 526.224 233.015V237.176C526.004 237.11 525.699 237.051 525.31 237C524.921 236.949 524.565 236.923 524.242 236.923C523.552 236.923 522.936 237.073 522.393 237.374C521.857 237.668 521.431 238.079 521.116 238.607C520.807 239.136 520.653 239.745 520.653 240.435V250.001H515.964ZM544.927 233.092L539.016 250.001H533.731L527.82 233.092H532.774L536.285 245.19H536.462L539.962 233.092H544.927ZM547.327 250.001V233.092H552.017V250.001H547.327ZM549.683 230.912C548.986 230.912 548.388 230.681 547.888 230.219C547.397 229.749 547.151 229.188 547.151 228.534C547.151 227.889 547.397 227.334 547.888 226.872C548.388 226.402 548.986 226.168 549.683 226.168C550.38 226.168 550.975 226.402 551.466 226.872C551.965 227.334 552.215 227.889 552.215 228.534C552.215 229.188 551.965 229.749 551.466 230.219C550.975 230.681 550.38 230.912 549.683 230.912ZM563.413 250.331C561.681 250.331 560.191 249.964 558.944 249.23C557.703 248.489 556.749 247.462 556.082 246.148C555.421 244.834 555.091 243.322 555.091 241.612C555.091 239.88 555.425 238.361 556.093 237.055C556.768 235.741 557.725 234.717 558.966 233.984C560.206 233.242 561.681 232.872 563.391 232.872C564.866 232.872 566.158 233.14 567.266 233.675C568.374 234.211 569.251 234.963 569.897 235.932C570.543 236.901 570.899 238.038 570.965 239.345H566.54C566.415 238.501 566.085 237.822 565.549 237.308C565.02 236.787 564.327 236.527 563.468 236.527C562.742 236.527 562.107 236.725 561.564 237.121C561.028 237.51 560.61 238.079 560.309 238.827C560.008 239.576 559.857 240.482 559.857 241.546C559.857 242.625 560.004 243.543 560.298 244.299C560.599 245.054 561.021 245.631 561.564 246.027C562.107 246.423 562.742 246.621 563.468 246.621C564.004 246.621 564.485 246.511 564.91 246.291C565.343 246.071 565.699 245.752 565.978 245.333C566.264 244.908 566.452 244.398 566.54 243.803H570.965C570.892 245.095 570.539 246.232 569.908 247.216C569.284 248.192 568.422 248.955 567.321 249.506C566.22 250.056 564.918 250.331 563.413 250.331ZM581.674 250.331C579.934 250.331 578.437 249.979 577.182 249.274C575.934 248.563 574.973 247.557 574.298 246.258C573.623 244.952 573.285 243.407 573.285 241.623C573.285 239.884 573.623 238.358 574.298 237.044C574.973 235.73 575.923 234.706 577.149 233.973C578.382 233.239 579.828 232.872 581.486 232.872C582.602 232.872 583.64 233.052 584.602 233.411C585.571 233.763 586.415 234.295 587.134 235.007C587.86 235.719 588.426 236.615 588.829 237.693C589.233 238.765 589.435 240.02 589.435 241.458V242.746H575.157V239.84H585.02C585.02 239.165 584.873 238.567 584.58 238.046C584.286 237.525 583.879 237.117 583.358 236.824C582.844 236.523 582.246 236.372 581.564 236.372C580.852 236.372 580.22 236.538 579.67 236.868C579.127 237.191 578.701 237.627 578.393 238.178C578.085 238.721 577.927 239.326 577.92 239.994V242.757C577.92 243.594 578.074 244.317 578.382 244.926C578.698 245.535 579.142 246.005 579.714 246.335C580.287 246.665 580.965 246.831 581.751 246.831C582.272 246.831 582.749 246.757 583.182 246.61C583.615 246.464 583.985 246.243 584.294 245.95C584.602 245.656 584.837 245.297 584.998 244.871L589.336 245.157C589.115 246.199 588.664 247.109 587.981 247.887C587.306 248.658 586.433 249.26 585.361 249.693C584.297 250.118 583.068 250.331 581.674 250.331ZM606.564 237.914L602.271 238.178C602.197 237.811 602.039 237.481 601.797 237.187C601.555 236.886 601.236 236.648 600.839 236.472C600.45 236.288 599.984 236.196 599.441 236.196C598.715 236.196 598.102 236.35 597.603 236.659C597.104 236.96 596.854 237.363 596.854 237.87C596.854 238.273 597.016 238.614 597.339 238.893C597.662 239.172 598.216 239.396 599.001 239.565L602.061 240.181C603.705 240.519 604.931 241.062 605.738 241.811C606.546 242.559 606.949 243.543 606.949 244.761C606.949 245.869 606.623 246.842 605.969 247.678C605.324 248.515 604.436 249.168 603.305 249.638C602.182 250.1 600.887 250.331 599.419 250.331C597.181 250.331 595.398 249.865 594.069 248.933C592.748 247.994 591.974 246.717 591.746 245.102L596.359 244.86C596.498 245.543 596.836 246.064 597.372 246.423C597.908 246.775 598.594 246.952 599.43 246.952C600.252 246.952 600.913 246.794 601.412 246.478C601.918 246.155 602.175 245.741 602.182 245.234C602.175 244.809 601.995 244.46 601.643 244.188C601.291 243.91 600.748 243.697 600.014 243.55L597.086 242.967C595.434 242.636 594.205 242.064 593.398 241.249C592.598 240.435 592.198 239.396 592.198 238.134C592.198 237.048 592.491 236.112 593.078 235.327C593.673 234.541 594.506 233.936 595.577 233.51C596.656 233.085 597.919 232.872 599.364 232.872C601.5 232.872 603.181 233.323 604.406 234.226C605.639 235.128 606.358 236.358 606.564 237.914Z" fill="white"></path><rect width="81.0273" height="81.0273" transform="translate(129.402 67.4717)" fill="url(#paint1_linear_14016_12542)"></rect><path fill-rule="evenodd" clip-rule="evenodd" d="M161.745 84.6897C159.449 85.6443 157.515 86.514 157.35 86.6665C156.913 87.0698 156.749 87.5617 156.749 88.4696C156.749 89.1323 156.808 89.407 157.069 89.9582C157.975 91.8742 159.952 92.3801 163.221 91.5331C165.44 90.9583 166.001 90.726 166.176 90.3103C166.279 90.0647 166.289 89.8774 166.21 89.6504C165.995 89.0344 165.471 88.9685 164.217 89.3997C162.109 90.1244 160.198 90.3557 159.468 89.9748C158.936 89.6967 158.557 89.1765 158.471 88.6037C158.429 88.3232 158.439 88.054 158.493 88.0056C158.546 87.957 160.328 87.2045 162.451 86.3331L166.312 84.749L171.713 84.7879L177.115 84.827L178.119 85.1359C178.689 85.3113 180.715 86.2183 182.806 87.234C188.315 89.9107 189.085 90.1174 193.552 90.1185L196.151 90.1192L196.425 89.8452C196.758 89.5129 196.783 89.0199 196.486 88.6529C196.274 88.3906 196.26 88.3891 193.166 88.3227C189.244 88.2386 188.863 88.1514 185.612 86.5942C179.948 83.881 179.381 83.6278 178.321 83.3406L177.226 83.0438L171.535 83.0146L165.844 82.9854L161.745 84.6897ZM168.777 87.391C168.546 87.5165 168.419 87.7331 168.243 88.3054C167.578 90.4586 168.009 92.1545 169.594 93.6225C170.541 94.4986 171.076 94.7823 174.355 96.1453L177.003 97.2463L177.486 97.9766C178.497 99.5047 180.229 100.738 182.136 101.285C183.774 101.756 186.066 101.683 187.883 101.102C188.697 100.842 188.825 100.835 192.436 100.834L196.151 100.832L196.425 100.558C196.788 100.196 196.788 99.6829 196.425 99.3205L196.151 99.0466H192.265C188.593 99.0466 188.341 99.0596 187.712 99.2823C184.079 100.569 180.28 99.4291 178.731 96.5885L178.338 95.8686L175.196 94.5658C171.296 92.9488 170.62 92.5185 169.968 91.2351C169.779 90.8627 169.668 89.5519 169.813 89.4054C169.848 89.3704 171.99 90.2196 174.573 91.2927C177.157 92.3657 179.392 93.2438 179.54 93.2438C180.181 93.2438 180.576 92.2473 180.117 91.7887C179.85 91.5213 169.561 87.211 169.217 87.2222C169.142 87.2247 168.944 87.3007 168.777 87.391ZM158.241 93.6638C157.855 93.7261 157.485 94.2055 157.485 94.6442C157.485 95.4773 158.457 95.8118 159.042 95.1803C159.329 94.8707 159.398 94.3874 159.206 94.0293C159.081 93.7945 158.588 93.6078 158.241 93.6638ZM155.22 96.5131C154.669 96.8191 153.239 99.2001 152.507 101.03C151.399 103.799 150.958 107.005 151.283 109.927C151.448 111.408 151.61 112.097 151.849 112.336C152.139 112.626 152.733 112.613 153.059 112.309C153.344 112.043 153.344 111.858 153.06 109.704C152.886 108.384 152.985 106.103 153.28 104.666C153.731 102.465 154.587 100.402 155.799 98.5935C156.605 97.3904 156.657 97.1522 156.213 96.7076C155.848 96.3434 155.609 96.2965 155.22 96.5131ZM166.62 99.3205C166.346 99.5944 166.346 99.5947 166.346 101.999V104.403H163.942C161.538 104.403 161.537 104.403 161.263 104.677L160.989 104.951V107.974V110.997L161.263 111.271C161.537 111.545 161.538 111.545 163.942 111.545H166.346V113.949C166.346 116.353 166.346 116.354 166.62 116.627L166.894 116.901H169.917H172.94L173.214 116.627C173.488 116.354 173.488 116.353 173.488 113.949V111.545H175.892C178.296 111.545 178.297 111.545 178.57 111.271L178.844 110.997V107.974V104.951L178.57 104.677C178.297 104.403 178.296 104.403 175.892 104.403H173.488V101.999C173.488 99.5947 173.488 99.5944 173.214 99.3205L172.94 99.0466H169.917H166.894L166.62 99.3205ZM168.131 103.236C168.131 106.448 168.391 106.189 165.179 106.189H162.775V107.974V109.76H165.179C168.391 109.76 168.131 109.5 168.131 112.712V115.116H169.917H171.702V112.712C171.702 109.5 171.443 109.76 174.655 109.76H177.059V107.974V106.189H174.655C171.443 106.189 171.702 106.448 171.702 103.236V100.832H169.917H168.131V103.236ZM186.964 103.571C186.546 103.801 186.489 104.141 186.669 105.334C186.887 106.776 186.861 109.665 186.618 110.987C186.209 113.219 185.278 115.498 183.987 117.427C183.584 118.03 183.308 118.562 183.308 118.737C183.308 119.337 184.086 119.768 184.637 119.473C184.747 119.415 185.114 118.95 185.453 118.441C187.161 115.88 188.1 113.372 188.511 110.274C188.811 108.01 188.532 104.215 188.029 103.722C187.739 103.437 187.316 103.377 186.964 103.571ZM153.066 114.548C152.545 114.665 151.898 114.841 151.629 114.938C151.22 115.088 150.543 115.116 147.412 115.116H143.682L143.409 115.39C143.046 115.752 143.046 116.265 143.409 116.627L143.682 116.901H147.589C151.192 116.901 151.539 116.885 152.045 116.685C152.347 116.566 153.007 116.39 153.512 116.295C155.704 115.879 157.797 116.276 159.386 117.41C160.152 117.956 160.59 118.462 161.129 119.42L161.492 120.064L164.573 121.356C168.583 123.038 169.204 123.427 169.828 124.644C170.052 125.082 170.183 126.379 170.02 126.544C169.985 126.579 167.841 125.73 165.257 124.656C162.672 123.583 160.457 122.704 160.333 122.704C160.21 122.704 159.972 122.822 159.805 122.966C159.437 123.283 159.395 123.838 159.715 124.158C159.833 124.276 161.511 125.029 163.445 125.832C165.378 126.635 167.75 127.621 168.716 128.023C170.575 128.798 170.824 128.834 171.24 128.387C171.358 128.261 171.535 127.87 171.633 127.518C172.227 125.401 171.785 123.757 170.235 122.321C169.294 121.45 168.711 121.141 165.462 119.79L162.842 118.701L162.356 117.973C161.317 116.418 159.482 115.126 157.586 114.614C156.511 114.325 154.214 114.291 153.066 114.548ZM181.119 120.685C180.73 120.922 180.579 121.328 180.73 121.725C180.896 122.163 181.178 122.309 181.779 122.271C182.037 122.254 182.527 121.727 182.527 121.466C182.527 121.12 182.291 120.726 182.007 120.596C181.637 120.428 181.523 120.439 181.119 120.685ZM178.243 124.052C177.436 124.173 175.27 124.745 174.436 125.058C173.674 125.343 173.389 125.767 173.606 126.291C173.866 126.918 174.359 126.981 175.617 126.548C177.725 125.824 179.635 125.592 180.365 125.973C180.901 126.253 181.262 126.755 181.35 127.341C181.393 127.629 181.387 127.901 181.336 127.946C181.285 127.991 179.509 128.741 177.388 129.613L173.533 131.199L168.126 131.16L162.719 131.121L161.715 130.811C161.152 130.637 159.091 129.715 157.028 128.713C151.512 126.036 150.747 125.831 146.282 125.83L143.682 125.829L143.409 126.103C143.076 126.435 143.051 126.928 143.348 127.295C143.56 127.557 143.574 127.559 146.668 127.625C151.066 127.72 150.38 127.504 158.16 131.231C159.623 131.932 160.793 132.412 161.508 132.606L162.608 132.904L168.246 132.945L173.885 132.985L178.011 131.29C180.538 130.252 182.261 129.481 182.457 129.302C182.92 128.879 183.085 128.4 183.085 127.478C183.085 125.098 181.017 123.635 178.243 124.052Z" fill="white"></path><rect width="81.0273" height="81.0273" transform="translate(306.43 67.4717)" fill="url(#paint2_linear_14016_12542)"></rect><path fill-rule="evenodd" clip-rule="evenodd" d="M346.088 83.0569C345.887 83.1077 345.469 83.2771 345.16 83.4333C344.083 83.9772 335.9 88.545 335.73 88.6971C335.322 89.0629 335.656 89.8949 336.211 89.8949C336.369 89.8949 338.379 88.8393 341.335 87.2038C346.578 84.3025 346.701 84.2497 347.529 84.5422C347.744 84.6181 351.372 86.5953 355.591 88.9358C359.81 91.2765 364.404 93.8238 365.8 94.5968L368.339 96.0021L357.617 96.0269C351.719 96.0406 342.074 96.0406 336.183 96.0269L325.471 96.0021L329.584 93.7198C331.845 92.4645 333.749 91.3739 333.813 91.2961C334.147 90.8939 333.776 90.1533 333.244 90.1579C332.955 90.1604 322.508 95.8913 322.099 96.2717C321.89 96.4656 321.879 96.5485 321.879 97.9069C321.879 99.681 321.995 100.133 322.635 100.844C323.175 101.445 323.837 101.785 324.647 101.876L325.216 101.941L326.476 103.711L327.736 105.48L327.739 114.49L327.742 123.5L326.449 125.312L325.155 127.124H324.198C323.135 127.124 322.759 127.236 322.349 127.674C321.937 128.115 321.879 128.404 321.879 130.017C321.879 131.972 322.038 132.406 322.905 132.804C323.281 132.976 324.204 132.983 346.873 132.985C367.872 132.987 370.489 132.971 370.809 132.837C371.304 132.63 371.502 132.432 371.774 131.87C371.989 131.424 372.007 131.271 372.007 129.836C372.007 128.827 371.973 128.307 371.909 128.346C371.855 128.379 371.811 128.339 371.811 128.257C371.811 128.03 371.219 127.405 370.863 127.256C370.671 127.176 370.173 127.124 369.59 127.124H368.633L367.339 125.312L366.046 123.5L366.049 114.49L366.052 105.48L367.31 103.713L368.568 101.946L369.212 101.839C369.567 101.78 370.06 101.631 370.308 101.507C370.889 101.217 371.581 100.446 371.729 99.9259C371.792 99.7026 371.881 99.478 371.926 99.427C371.97 99.376 372.003 98.6505 371.999 97.8147C371.995 96.9791 371.968 96.3533 371.94 96.4242C371.902 96.5184 371.85 96.499 371.748 96.3524C371.576 96.1074 372.266 96.5009 363.506 91.6496C359.502 89.4322 354.6 86.7163 352.613 85.6143C350.626 84.5123 348.729 83.4833 348.396 83.3278C347.726 83.0141 346.724 82.8964 346.088 83.0569ZM346.21 87.4901C345.47 87.6547 344.954 87.9436 344.478 88.4601C343.835 89.1579 343.64 89.6236 343.594 90.5789C343.538 91.7114 343.783 92.3689 344.541 93.1273C345.492 94.0779 346.853 94.3651 348.135 93.8853C348.915 93.5936 349.715 92.7887 350.014 91.9951C350.307 91.2189 350.269 89.9718 349.934 89.3234C349.624 88.7242 348.983 88.0603 348.457 87.794C348.091 87.6084 347.023 87.3299 346.803 87.3625C346.772 87.367 346.506 87.4245 346.21 87.4901ZM346.32 88.9633C345.501 89.2247 345.037 89.8802 345.037 90.7761C345.037 91.8637 345.806 92.6309 346.895 92.6309C348.063 92.6309 348.808 91.8127 348.732 90.6151C348.7 90.1114 348.639 89.9327 348.398 89.6298C347.882 88.9821 347.073 88.7229 346.32 88.9633ZM321.918 97.9564C321.919 98.8163 321.934 99.155 321.952 98.7091C321.97 98.2631 321.97 97.5596 321.951 97.1457C321.933 96.7317 321.918 97.0965 321.918 97.9564ZM323.36 98.487C323.396 99.5331 323.494 99.7708 324.066 100.198L324.336 100.399H346.894H369.452L369.722 100.198C370.294 99.7708 370.392 99.5331 370.428 98.487L370.462 97.5167H346.894H323.326L323.36 98.487ZM327.058 101.968C327.058 101.997 327.464 102.591 327.959 103.287L328.861 104.552H331.42H333.979L334.911 103.233L335.844 101.914H331.451C329.035 101.914 327.058 101.938 327.058 101.968ZM336.356 103.722L335.07 105.53L335.071 114.495L335.072 123.46L336.366 125.289L337.66 127.118H346.894H356.128L357.422 125.289L358.716 123.46L358.717 120.5L358.718 117.539L358.957 117.3C359.223 117.034 359.376 117.008 359.728 117.168C360.15 117.36 360.183 117.596 360.183 120.387V123.02H362.382H364.58V114.519V106.018H362.385H360.189L360.162 110.375L360.134 114.732L359.904 114.919C359.591 115.172 359.189 115.155 358.93 114.879C358.718 114.654 358.718 114.641 358.718 110.091V105.53L357.432 103.722L356.146 101.914H346.894H337.642L336.356 103.722ZM358.877 103.233L359.809 104.552H362.368H364.927L365.829 103.287C366.325 102.591 366.73 101.997 366.73 101.968C366.73 101.938 364.753 101.914 362.337 101.914H357.944L358.877 103.233ZM329.208 114.519V123.02H331.406H333.605V114.519V106.018H331.406H329.208V114.519ZM345.184 106.277C343.193 106.702 341.255 107.963 340.103 109.585C337.093 113.819 338.523 119.669 343.132 121.976C347.094 123.96 351.858 122.554 354.123 118.734C357.038 113.817 354.172 107.426 348.535 106.27C347.607 106.08 346.095 106.083 345.184 106.277ZM345.282 107.765C342.307 108.5 340.188 111.025 339.988 114.074C339.809 116.797 341.364 119.481 343.816 120.682C344.909 121.217 345.669 121.393 346.894 121.393C348.12 121.393 348.881 121.217 349.972 120.681C352.431 119.473 353.979 116.801 353.8 114.074C353.557 110.38 350.523 107.558 346.826 107.589C346.353 107.593 345.658 107.672 345.282 107.765ZM346.372 108.835C346.283 108.933 346.21 109.17 346.21 109.361C346.21 109.697 346.195 109.711 345.783 109.773C345.1 109.875 344.518 110.307 344.208 110.941C343.955 111.458 343.944 111.544 343.977 112.652C344.01 113.767 344.025 113.837 344.308 114.241C344.668 114.752 345.133 115.081 345.61 115.16C345.806 115.192 346.021 115.236 346.088 115.257C346.177 115.284 346.21 115.625 346.21 116.519V117.744H345.968C345.683 117.744 345.478 117.46 345.386 116.94C345.223 116.006 343.963 116.107 343.963 117.055C343.963 118.137 344.738 119.059 345.77 119.204C346.139 119.255 346.163 119.279 346.191 119.622C346.223 120.008 346.569 120.382 346.894 120.382C347.218 120.382 347.565 120.008 347.597 119.624C347.625 119.283 347.65 119.259 348.035 119.194C348.602 119.098 348.975 118.884 349.33 118.454C349.734 117.965 349.824 117.592 349.825 116.419C349.825 115.552 349.795 115.376 349.567 114.918C349.265 114.312 348.672 113.879 348.005 113.779L347.578 113.715V112.502C347.578 111.496 347.604 111.279 347.73 111.23C347.954 111.144 348.36 111.571 348.36 111.892C348.36 112.297 348.747 112.695 349.141 112.695C349.839 112.695 350.039 111.858 349.567 110.912C349.265 110.305 348.672 109.873 348.005 109.773C347.589 109.71 347.578 109.7 347.578 109.344C347.578 109.115 347.512 108.92 347.399 108.818C347.158 108.599 346.576 108.609 346.372 108.835ZM345.644 111.42C345.457 111.619 345.428 111.758 345.428 112.476C345.428 113.408 345.571 113.737 345.974 113.737H346.216L346.189 112.493C346.166 111.463 346.135 111.243 346.01 111.219C345.927 111.203 345.762 111.293 345.644 111.42ZM347.643 115.268C347.607 115.304 347.578 115.876 347.578 116.539V117.744H347.817C348.219 117.744 348.36 117.413 348.36 116.469C348.36 115.716 348.336 115.606 348.134 115.416C347.901 115.197 347.757 115.154 347.643 115.268ZM327.908 125.779L326.987 127.076L329.166 127.102C330.364 127.116 332.359 127.116 333.6 127.102L335.856 127.076L334.945 125.805L334.034 124.535L331.431 124.509L328.829 124.483L327.908 125.779ZM359.565 124.804C359.435 124.978 359.014 125.561 358.63 126.098L357.931 127.076L360.125 127.102C361.332 127.116 363.328 127.116 364.561 127.102L366.802 127.076L365.877 125.781L364.952 124.486H362.377H359.802L359.565 124.804ZM321.919 130.007C321.919 130.921 321.933 131.308 321.952 130.867C321.97 130.426 321.97 129.679 321.952 129.206C321.934 128.733 321.919 129.093 321.919 130.007ZM323.388 128.717C323.361 128.787 323.351 129.436 323.366 130.158L323.393 131.473H346.894H370.395V130.056V128.639L346.915 128.614C327.7 128.594 323.427 128.613 323.388 128.717Z" fill="white"></path><rect width="81.0273" height="81.0273" transform="translate(483.457 67.4717)" fill="url(#paint3_linear_14016_12542)"></rect><path fill-rule="evenodd" clip-rule="evenodd" d="M500.651 83.1392C499.775 83.3852 499.131 83.7618 498.492 84.4008C497.809 85.0841 497.392 85.8418 497.198 86.7488C497.112 87.1512 497.078 92.1348 497.078 104.719C497.078 123.774 497.045 122.71 497.686 123.898C498.324 125.08 499.704 126.046 501.071 126.267C501.53 126.342 507.724 126.378 520.009 126.379L538.264 126.379V128.255C538.264 130.027 538.277 130.15 538.5 130.478C538.975 131.176 539.637 131.456 540.426 131.295C540.73 131.233 541.136 130.976 541.821 130.414L542.788 129.621L543.302 130.719C543.918 132.035 544.281 132.474 545.01 132.788C546.774 133.547 548.731 132.007 548.422 130.103C548.39 129.904 548.148 129.286 547.884 128.729C547.62 128.172 547.405 127.659 547.405 127.587C547.405 127.509 547.627 127.428 547.956 127.385C548.979 127.252 549.915 126.997 550.197 126.774C550.534 126.509 550.867 125.817 550.867 125.381C550.867 124.695 550.534 124.262 549.048 123.015L547.615 121.811L547.613 104.632C547.611 85.8998 547.634 86.6277 547.015 85.4852C546.385 84.3213 545.131 83.3771 543.853 83.1058C543.002 82.925 501.298 82.9572 500.651 83.1392ZM501.302 84.7849C500.593 84.9042 500.219 85.0999 499.689 85.6304C499.06 86.2596 498.863 86.7964 498.79 88.0858L498.728 89.1864H522.289H545.851L545.809 88.0045C545.775 87.0591 545.722 86.7383 545.544 86.4022C545.221 85.7921 544.701 85.3043 544.042 84.9936L543.465 84.7212L522.662 84.7063C510.913 84.6978 501.617 84.7321 501.302 84.7849ZM501.533 86.3847C501.181 86.6879 501.16 87.2207 501.487 87.5485C501.703 87.7637 501.798 87.7686 506.353 87.7945C511.348 87.8229 511.369 87.8208 511.672 87.2819C511.867 86.9332 511.687 86.4335 511.303 86.2583C511.122 86.1758 509.634 86.1395 506.43 86.1395H501.818L501.533 86.3847ZM534.815 86.3827C534.502 86.7161 534.515 87.233 534.845 87.5627C535.604 88.3223 536.717 87.2642 536.05 86.4164C535.759 86.0466 535.146 86.0299 534.815 86.3827ZM538.387 86.3827C538.074 86.7161 538.087 87.233 538.417 87.5627C539.176 88.3223 540.289 87.2642 539.622 86.4164C539.331 86.0466 538.719 86.0299 538.387 86.3827ZM541.949 86.4164C541.282 87.2642 542.395 88.3223 543.154 87.5627C543.709 87.0078 543.338 86.1395 542.546 86.1395C542.261 86.1395 542.112 86.2086 541.949 86.4164ZM498.783 106.601L498.812 122.229L499.063 122.784C499.212 123.114 499.521 123.525 499.825 123.799C500.785 124.661 499.071 124.593 519.787 124.593H538.256L538.286 120.819C538.315 117.195 538.325 117.032 538.533 116.754C538.917 116.239 539.273 116.047 539.917 116.003C540.685 115.952 540.727 115.98 543.619 118.425L545.829 120.294V105.634V90.9725H522.292H498.755L498.783 106.601ZM509.325 96.6827C508.972 97.0351 508.968 97.5132 509.314 97.859C509.54 98.0854 509.665 98.1172 510.338 98.1184C511.331 98.1202 511.537 98.1826 511.669 98.5209C511.728 98.6743 512.704 102.275 513.837 106.521C514.97 110.768 516.001 114.43 516.128 114.659C516.446 115.234 517.13 115.728 517.801 115.867C518.18 115.946 520.616 115.973 525.482 115.954L532.609 115.925L532.862 115.631C533.201 115.236 533.184 114.875 532.809 114.499L532.501 114.192H525.244C518.195 114.192 517.98 114.186 517.782 113.988C517.595 113.8 517.251 112.868 517.251 112.548C517.251 112.44 518.62 112.407 524.159 112.383L531.067 112.353L531.66 112.075C532.342 111.755 533.012 111.13 533.321 110.525C533.523 110.129 535.638 102.349 535.637 102.007C535.634 101.299 535.109 100.512 534.433 100.206C534.031 100.023 533.482 100.013 523.952 100.01L513.895 100.008L513.734 99.4303C513.646 99.1124 513.504 98.6041 513.418 98.3008C513.206 97.5457 512.926 97.1276 512.404 96.7818C511.997 96.5127 511.864 96.4857 510.777 96.4513C509.624 96.4146 509.587 96.4206 509.325 96.6827ZM514.418 101.873C514.42 101.974 514.622 102.79 514.866 103.685L515.309 105.314L516.805 105.343L518.302 105.372V105.13C518.302 104.997 518.208 104.227 518.093 103.42C517.978 102.612 517.884 101.893 517.883 101.82C517.882 101.721 517.464 101.689 516.148 101.689C514.565 101.689 514.414 101.705 514.418 101.873ZM519.667 101.932C519.667 102.066 519.762 102.855 519.878 103.685C519.993 104.516 520.088 105.234 520.088 105.281C520.088 105.328 520.797 105.366 521.664 105.366H523.24V103.528V101.689H521.453H519.667V101.932ZM525.026 103.528V105.366H526.6C528.146 105.366 528.175 105.362 528.227 105.13C528.269 104.941 528.703 101.834 528.703 101.72C528.703 101.703 527.876 101.689 526.864 101.689H525.026V103.528ZM530.44 101.82C530.417 101.893 530.321 102.566 530.227 103.318C530.133 104.069 530.03 104.837 529.998 105.025L529.94 105.366H531.471H533.001L533.094 105.025C533.75 102.628 533.899 101.89 533.746 101.792C533.497 101.635 530.492 101.66 530.44 101.82ZM515.82 107.231C515.849 107.333 516.043 108.053 516.251 108.834C516.458 109.614 516.653 110.335 516.684 110.436C516.733 110.596 516.886 110.62 517.888 110.62C518.693 110.62 519.037 110.583 519.037 110.497C519.037 110.43 518.936 109.626 518.812 108.711L518.586 107.047H517.176C515.883 107.047 515.77 107.063 515.82 107.231ZM520.363 107.284C520.383 107.414 520.472 108.064 520.561 108.729C520.649 109.393 520.747 110.09 520.777 110.278L520.833 110.62H522.036H523.24V108.834V107.047H521.783C520.332 107.047 520.327 107.048 520.363 107.284ZM525.026 108.834V110.62H526.269H527.511L527.698 109.175C527.801 108.381 527.91 107.577 527.94 107.389L527.995 107.047H526.51H525.026V108.834ZM529.705 107.284C529.676 107.414 529.579 108.111 529.489 108.834C529.399 109.556 529.302 110.253 529.275 110.383C529.226 110.612 529.251 110.62 529.999 110.62C530.838 110.62 531.256 110.434 531.669 109.876C531.846 109.637 532.485 107.525 532.485 107.179C532.485 107.08 532.143 107.047 531.121 107.047C529.793 107.047 529.756 107.054 529.705 107.284ZM519.85 116.813C519.241 117.2 518.932 117.767 518.932 118.5C518.932 120.656 521.798 121.35 522.757 119.426C523.077 118.782 523.098 118.291 522.83 117.712C522.448 116.887 521.833 116.503 520.889 116.503C520.46 116.503 520.231 116.572 519.85 116.813ZM527.81 116.657C526.532 117.323 526.283 119.058 527.33 120.004C527.705 120.343 528.297 120.6 528.703 120.6C529.361 120.6 530.235 120.039 530.562 119.406C530.97 118.616 530.688 117.498 529.924 116.88C529.59 116.61 529.426 116.557 528.828 116.528C528.338 116.504 528.03 116.543 527.81 116.657ZM540.013 123.615C539.973 126.829 539.963 129.479 539.989 129.505C540.015 129.531 540.609 129.097 541.308 128.54C542.75 127.391 542.952 127.286 543.408 127.444C543.742 127.561 543.767 127.603 544.938 130.122C545.183 130.648 545.437 131.112 545.502 131.153C545.979 131.448 546.71 131.053 546.691 130.51C546.686 130.348 546.347 129.505 545.94 128.639C545.532 127.773 545.198 126.96 545.198 126.832C545.198 126.705 545.306 126.476 545.438 126.323C545.65 126.076 545.864 126.01 547.345 125.741C548.906 125.456 549.186 125.384 549.077 125.292C549.053 125.272 547.071 123.603 544.673 121.584C542.275 119.564 540.261 117.88 540.198 117.842C540.117 117.793 540.064 119.452 540.013 123.615ZM520.717 118.343C520.602 118.482 520.604 118.536 520.735 118.666C520.947 118.879 521.263 118.745 521.223 118.461C521.183 118.185 520.903 118.119 520.717 118.343ZM528.462 118.25C528.331 118.381 528.382 118.685 528.545 118.748C528.803 118.847 529.032 118.701 528.997 118.46C528.966 118.239 528.612 118.1 528.462 118.25Z" fill="white"></path><rect width="81.0273" height="81.0273" transform="translate(660.484 67.4717)" fill="url(#paint4_linear_14016_12542)"></rect><path fill-rule="evenodd" clip-rule="evenodd" d="M691.772 83.2588C691.56 83.5278 691.557 83.6222 691.557 89.2815C691.557 94.7746 691.548 95.0401 691.361 95.2411C691.135 95.4834 691.038 95.8835 691.039 96.5655C691.04 97.2805 691.214 97.7786 691.568 98.0764C691.866 98.3272 691.95 98.3425 693.044 98.3425H694.203L694.473 98.6808C694.621 98.8668 694.995 99.1587 695.303 99.3293C695.787 99.5975 695.969 99.6391 696.641 99.637C697.551 99.6338 698.257 99.332 698.801 98.7123L699.125 98.3425H702.201H705.277L705.842 98.859C707.047 99.9609 708.545 99.9609 709.75 98.859L710.315 98.3425H711.473C713.254 98.3425 713.555 98.087 713.555 96.5768C713.555 95.7302 713.479 95.457 713.136 95.0739C712.973 94.8925 712.945 94.6107 712.915 92.8412L712.881 90.8159L712.393 90.0396C711.269 88.251 710.372 86.9751 710.098 86.7768C709.828 86.5818 709.626 86.5627 707.529 86.5337L705.254 86.5021V85.0172C705.254 83.672 705.234 83.5065 705.039 83.2588L704.824 82.9854H698.405H691.987L691.772 83.2588ZM693.01 89.6263V94.8145H693.738C694.399 94.8145 694.516 94.7811 694.985 94.4585C696.036 93.7356 697.238 93.7358 698.313 94.459L698.841 94.8145H701.321H703.801V89.6263V84.4381H698.405H693.01V89.6263ZM705.254 91.3903C705.254 94.7404 705.258 94.8145 705.46 94.8145C705.574 94.8145 705.876 94.6554 706.13 94.4609C706.537 94.1508 707.312 93.8806 707.796 93.8806C708.283 93.8806 709.056 94.1509 709.468 94.4653C709.915 94.8068 709.971 94.822 710.682 94.793L711.428 94.7626L711.456 93.1283L711.485 91.494H709.195H706.905L706.65 91.2393C706.403 90.9922 706.395 90.9394 706.395 89.4753V87.966H705.825H705.254V91.3903ZM707.848 88.9991V90.0413H709.252C710.56 90.0413 710.65 90.0288 710.554 89.8597C710.497 89.7598 710.203 89.3046 709.9 88.848L709.35 88.0179L708.599 87.9874L707.848 87.9569V88.9991ZM696.026 95.5095C694.717 96.1975 695.079 98.0539 696.552 98.204C697.094 98.2593 697.573 98.0023 697.887 97.4874C698.594 96.3278 697.229 94.8772 696.026 95.5095ZM707.17 95.5406C706.655 95.7958 706.395 96.2139 706.395 96.7898C706.395 97.3418 706.702 97.8522 707.165 98.0721C708.141 98.5352 709.197 97.8689 709.197 96.7898C709.197 96.2105 708.934 95.7903 708.414 95.5387C707.883 95.2813 707.693 95.2816 707.17 95.5406ZM718.224 95.4069C717.912 95.5218 717.706 95.7874 717.706 96.0744C717.706 96.2811 717.948 96.6876 718.524 97.4454C720.872 100.535 722.283 104.111 722.684 107.993C722.8 109.106 722.82 110.86 722.724 111.44L722.66 111.827L722.294 111.337C721.642 110.462 721.427 110.275 721.075 110.275C720.889 110.275 720.673 110.358 720.575 110.465C720.215 110.864 720.35 111.188 721.501 112.69C722.673 114.219 722.962 114.486 723.334 114.386C723.59 114.316 726.155 112.371 726.448 112.024C726.688 111.739 726.678 111.361 726.422 111.106C726.07 110.753 725.685 110.842 724.902 111.454L724.191 112.011L724.188 109.976C724.183 107.195 723.85 105.222 722.941 102.589C722.214 100.485 720.771 97.8816 719.366 96.1378C718.99 95.6718 718.53 95.2916 718.401 95.3415C718.389 95.346 718.31 95.3755 718.224 95.4069ZM684.086 95.767C682.425 95.9906 682.083 96.1366 682.032 96.6439C682.01 96.862 682.076 97.0188 682.266 97.1972C682.527 97.4421 682.545 97.4442 683.432 97.3257C683.927 97.2594 684.348 97.221 684.367 97.2402C684.386 97.2595 684.113 97.7357 683.759 98.2983C682.08 100.97 680.987 104.112 680.548 107.525C680.32 109.294 680.558 113.735 680.91 114.305C681.045 114.524 681.466 114.638 681.745 114.532C682.204 114.357 682.252 114.11 682.068 112.835C681.871 111.474 681.842 108.86 682.007 107.526C682.378 104.538 683.442 101.527 685.029 98.9724C685.638 97.9919 685.662 97.9982 685.79 99.1726C685.889 100.078 686.051 100.314 686.576 100.314C686.899 100.314 687.023 100.259 687.156 100.055C687.315 99.8135 687.309 99.6692 687.081 97.9095C686.797 95.7149 686.716 95.5339 686.024 95.5526C685.786 95.559 684.913 95.6555 684.086 95.767ZM696.242 96.2413C695.885 96.5433 695.853 96.9407 696.16 97.2478C696.493 97.5806 696.787 97.5836 697.113 97.2576C697.253 97.1176 697.368 96.9054 697.368 96.786C697.368 96.5134 696.924 96.0597 696.658 96.0597C696.547 96.0597 696.36 96.1413 696.242 96.2413ZM707.457 96.1873C706.976 96.4187 707.046 97.2705 707.56 97.4513C708.354 97.7304 708.869 96.5293 708.105 96.1812C707.791 96.0384 707.765 96.0386 707.457 96.1873ZM692.491 96.5785V96.8898H693.113C693.582 96.8898 693.736 96.8533 693.736 96.7427C693.736 96.6617 693.764 96.5216 693.799 96.4314C693.853 96.2919 693.759 96.2672 693.176 96.2672H692.491V96.5785ZM699.547 96.5785V96.8898H702.245H704.943V96.5785V96.2672H702.245H699.547V96.5785ZM710.65 96.5785V96.8898H711.376H712.102V96.5785V96.2672H711.376H710.65V96.5785ZM700.903 102.762C700.685 102.946 700.563 103.16 700.518 103.44C700.375 104.339 699.798 104.597 699.058 104.092C698.739 103.874 698.58 103.833 698.212 103.873C697.831 103.915 697.663 104.018 697.141 104.531C696.156 105.498 696.012 105.969 696.486 106.666C696.83 107.172 696.825 107.604 696.472 107.881C696.321 108 696.06 108.096 695.891 108.096C695.679 108.096 695.473 108.207 695.23 108.449L694.877 108.802V109.855C694.877 111.323 695.035 111.572 696.097 111.782C696.751 111.911 696.935 112.572 696.486 113.181C696.311 113.417 696.226 113.668 696.226 113.946C696.226 114.324 696.296 114.43 697.038 115.171C697.809 115.943 697.872 115.982 698.314 115.982C698.648 115.982 698.88 115.909 699.132 115.723C699.325 115.58 699.593 115.464 699.727 115.464C700.052 115.464 700.481 115.906 700.481 116.242C700.481 117.036 701.086 117.435 702.29 117.435C703.538 117.435 704.004 117.144 704.157 116.267C704.235 115.827 704.566 115.462 704.884 115.467C705.002 115.469 705.285 115.585 705.513 115.726C705.782 115.891 706.083 115.982 706.367 115.982C706.766 115.982 706.873 115.92 707.533 115.297C708.524 114.362 708.641 113.898 708.091 113.079C707.814 112.667 707.801 112.568 707.969 112.199C708.052 112.017 708.223 111.898 708.514 111.82C709.241 111.626 709.399 111.535 709.612 111.185C709.868 110.765 709.904 109.329 709.672 108.774C709.512 108.392 709.057 108.096 708.627 108.096C708.288 108.096 707.848 107.667 707.848 107.337C707.848 107.199 707.945 106.964 708.063 106.814C708.638 106.082 708.507 105.567 707.498 104.588C706.81 103.921 706.686 103.842 706.323 103.842C706.053 103.842 705.799 103.929 705.565 104.101C704.897 104.595 704.276 104.363 704.158 103.577C704.11 103.256 703.99 103.009 703.781 102.8C703.479 102.498 703.457 102.493 702.348 102.493C701.289 102.493 701.204 102.509 700.903 102.762ZM701.87 104.127C701.535 105.192 700.74 105.809 699.702 105.809C699.416 105.809 698.991 105.721 698.753 105.613L698.322 105.418L698.066 105.693L697.81 105.969L698.001 106.384C698.247 106.918 698.246 107.721 697.999 108.265C697.782 108.742 697.234 109.229 696.72 109.401C696.421 109.501 696.378 109.563 696.351 109.937C696.321 110.332 696.34 110.365 696.63 110.429C697.865 110.7 698.581 112.334 697.981 113.51L697.764 113.936L698.025 114.197L698.286 114.458L698.806 114.234C699.476 113.946 699.989 113.953 700.645 114.258C701.242 114.537 701.532 114.857 701.786 115.522C701.949 115.951 701.988 115.982 702.341 115.982C702.701 115.982 702.727 115.959 702.84 115.534C702.994 114.959 703.708 114.28 704.335 114.111C704.869 113.967 705.569 114.044 705.99 114.292C706.288 114.468 706.298 114.467 706.567 114.197L706.842 113.923L706.658 113.537C706.233 112.642 706.367 111.772 707.042 111.039C707.338 110.718 707.608 110.539 707.923 110.455C708.368 110.336 708.376 110.326 708.346 109.931C708.318 109.569 708.276 109.515 707.927 109.396C707.332 109.192 707.052 108.97 706.76 108.471C706.366 107.8 706.316 107.127 706.607 106.45L706.842 105.902L706.581 105.641L706.32 105.38L705.895 105.597C704.728 106.192 703.082 105.473 702.814 104.251C702.754 103.976 702.706 103.946 702.337 103.946C702.037 103.946 701.911 103.995 701.87 104.127ZM701.051 106.124C699.818 106.538 698.914 107.468 698.501 108.747C697.902 110.603 698.784 112.639 700.565 113.516C701.212 113.834 701.324 113.855 702.347 113.855C703.336 113.855 703.494 113.828 704.04 113.56C704.808 113.183 705.567 112.424 705.944 111.656C706.215 111.105 706.24 110.957 706.24 109.912C706.24 108.834 706.222 108.736 705.913 108.147C705.512 107.379 704.711 106.612 703.944 106.261C703.138 105.892 701.916 105.834 701.051 106.124ZM701.259 107.617C699.668 108.37 699.263 110.282 700.417 111.594C700.958 112.209 701.494 112.449 702.326 112.452C703.796 112.457 704.846 111.41 704.853 109.93C704.862 108.05 702.948 106.819 701.259 107.617ZM675.994 114.608C675.795 114.708 675.574 114.906 675.502 115.049C675.403 115.247 675.372 116.716 675.371 121.289C675.37 127.024 675.378 127.28 675.568 127.515L675.766 127.76H682.944H690.123L690.321 127.515C690.509 127.283 690.519 127.053 690.519 123.253V119.235L690.279 119.01C690.147 118.886 689.949 118.786 689.838 118.788C689.728 118.79 688.657 119.063 687.458 119.393L685.279 119.994L685.247 119.6C685.214 119.186 684.847 118.78 684.513 118.789C684.421 118.791 683.353 119.064 682.14 119.395L679.935 119.997V117.673C679.935 115.066 679.885 114.836 679.257 114.573C678.714 114.347 676.467 114.37 675.994 114.608ZM718.456 115.423C717.814 115.659 716.95 116.491 716.666 117.148C716.35 117.876 716.339 118.949 716.639 119.627C717.024 120.495 717.856 121.229 718.743 121.484L719.003 121.559L718.691 121.63C716.755 122.075 715.425 122.952 714.485 124.405C713.941 125.247 713.652 126.142 713.585 127.193C713.537 127.957 713.559 128.138 713.745 128.503C713.864 128.736 714.11 129.052 714.292 129.205C716.493 131.057 722.978 131.01 724.952 129.127C725.501 128.604 725.629 128.272 725.612 127.408C725.563 124.806 723.546 122.318 721.054 121.785C720.319 121.627 720.183 121.524 720.591 121.434C720.958 121.354 721.756 120.808 722.042 120.442C722.558 119.782 722.729 119.277 722.727 118.421C722.727 117.758 722.676 117.487 722.477 117.076C722.176 116.454 721.605 115.864 721.004 115.554C720.422 115.253 719.102 115.186 718.456 115.423ZM676.822 116.294V116.709H677.652H678.483V116.294V115.879H677.652H676.822V116.294ZM718.759 116.879C718.363 117.08 717.965 117.639 717.863 118.135C717.727 118.794 718.189 119.632 718.89 119.998C719.316 120.221 720.172 120.134 720.607 119.825C720.989 119.552 721.332 118.89 721.335 118.417C721.338 118 720.942 117.24 720.586 116.981C720.195 116.696 719.225 116.642 718.759 116.879ZM676.822 122.265V126.368L677.627 126.337L678.431 126.307L678.458 122.234L678.485 118.162H677.654H676.822V122.265ZM682.114 120.902C681.23 121.146 680.378 121.377 680.221 121.416L679.935 121.486V123.922V126.359H681.855H683.775V123.402C683.775 121.775 683.763 120.448 683.749 120.452C683.734 120.456 682.999 120.659 682.114 120.902ZM687.977 120.754C687.406 120.916 686.554 121.151 686.083 121.276L685.227 121.505V123.932V126.359H687.147H689.067V123.402C689.067 121.775 689.055 120.448 689.041 120.453C689.026 120.457 688.548 120.593 687.977 120.754ZM680.475 122.649L680.506 123.194H680.973H681.44L681.471 122.649L681.503 122.105H680.973H680.443L680.475 122.649ZM682.184 122.174C682.055 122.302 682.113 123.012 682.263 123.136C682.344 123.204 682.589 123.245 682.808 123.227L683.204 123.194L683.235 122.649L683.267 122.105H682.76C682.481 122.105 682.222 122.136 682.184 122.174ZM685.767 122.649L685.798 123.194H686.317H686.836L686.867 122.649L686.898 122.105H686.317H685.735L685.767 122.649ZM687.531 122.649L687.562 123.194H688.029H688.496L688.527 122.649L688.559 122.105H688.029H687.499L687.531 122.649ZM718.509 123.151C718.032 123.264 717.154 123.701 716.675 124.065C715.431 125.01 714.56 127.46 715.241 128.098C715.906 128.72 717.511 129.087 719.573 129.087C721.289 129.087 722.412 128.897 723.304 128.455C724.138 128.042 724.266 127.815 724.136 126.981C723.852 125.163 722.507 123.652 720.771 123.199C720.102 123.025 719.131 123.005 718.509 123.151ZM694.551 127.797C693.658 128.176 692.852 128.55 692.761 128.628C692.669 128.707 692.595 128.897 692.595 129.052C692.595 129.444 693.914 132.597 694.171 132.818C694.614 133.201 695.295 132.885 695.29 132.299C695.288 132.143 695.149 131.69 694.98 131.295C694.811 130.899 694.689 130.56 694.707 130.541C694.726 130.523 694.947 130.58 695.198 130.669C696.732 131.214 699.287 131.688 701.364 131.815C703.53 131.947 706.724 131.524 708.965 130.807C710.197 130.413 711.739 129.759 712.008 129.515C712.289 129.261 712.271 128.699 711.975 128.492C711.637 128.255 711.424 128.288 710.39 128.733C706.17 130.552 701.361 130.867 696.783 129.625C696.262 129.484 695.688 129.306 695.508 129.23L695.18 129.093L695.906 128.808C696.305 128.651 696.751 128.43 696.896 128.316C697.405 127.915 697.103 127.072 696.46 127.096C696.303 127.102 695.444 127.417 694.551 127.797Z" fill="white"></path><rect width="81.0273" height="81.0273" transform="translate(54.8867 334.305)" fill="url(#paint5_linear_14016_12542)"></rect><path fill-rule="evenodd" clip-rule="evenodd" d="M91.3434 349.993C90.9749 350.153 90.9458 350.216 89.4805 354.031C89.293 354.519 89.263 354.541 88.4451 354.785C87.1272 355.179 85.6033 355.797 84.2625 356.483L83.032 357.113L81.0009 356.202C79.8839 355.701 78.8148 355.292 78.6252 355.292C78.327 355.292 77.9075 355.664 75.5205 358.043C74.0026 359.557 72.7018 360.937 72.6298 361.111C72.5113 361.397 72.5867 361.626 73.4208 363.511C73.928 364.657 74.3427 365.645 74.3424 365.707C74.342 365.769 74.0105 366.486 73.6055 367.3C73.2006 368.114 72.6287 369.506 72.335 370.394L71.8008 372.008L69.652 372.829C68.2663 373.359 67.4444 373.734 67.3377 373.887C67.2006 374.082 67.1729 374.803 67.176 378.109C67.1786 381.064 67.2155 382.143 67.3183 382.277C67.6471 382.705 67.8502 382.722 72.6029 382.722C76.6811 382.722 77.2835 382.7 77.5118 382.54C77.8836 382.28 77.979 381.936 77.8585 381.292C77.0311 376.874 78.0458 372.042 80.6172 368.153C81.6081 366.655 83.9234 364.346 85.4435 363.341C87.4343 362.025 89.564 361.128 91.9161 360.616C92.8917 360.404 93.4203 360.366 95.3995 360.366C97.3786 360.366 97.9072 360.404 98.8828 360.616C101.246 361.131 103.562 362.111 105.44 363.394C107.442 364.76 109.595 367.082 110.858 369.235C111.82 370.874 112.656 373.247 113.003 375.323C113.231 376.685 113.233 379.573 113.007 380.901C112.828 381.954 112.879 382.254 113.287 382.54C113.515 382.7 114.118 382.722 118.196 382.722C122.949 382.722 123.152 382.705 123.481 382.277C123.583 382.143 123.62 381.064 123.623 378.109C123.626 374.803 123.598 374.082 123.461 373.887C123.355 373.735 122.529 373.356 121.146 372.826L118.996 372.001L118.463 370.39C118.17 369.504 117.598 368.114 117.193 367.3C116.788 366.486 116.457 365.769 116.457 365.707C116.456 365.645 116.871 364.657 117.378 363.511C118.212 361.626 118.288 361.397 118.169 361.111C118.097 360.937 116.796 359.557 115.278 358.043C112.891 355.664 112.472 355.292 112.174 355.292C111.984 355.292 110.919 355.7 109.807 356.198L107.785 357.105L106.173 356.314C105.287 355.879 103.873 355.294 103.031 355.014L101.501 354.505L101.313 354.017C99.8347 350.166 99.8294 350.155 99.4306 349.988C98.8839 349.76 91.8697 349.764 91.3434 349.993ZM92.2708 351.849C92.227 351.958 91.8855 352.842 91.5121 353.812C91.1388 354.783 90.7597 355.689 90.6699 355.827C90.5607 355.995 90.2328 356.157 89.6807 356.316C87.6517 356.898 85.9107 357.613 84.2649 358.538C83.7665 358.819 83.2637 359.047 83.1475 359.047C83.0313 359.046 82.032 358.644 80.9269 358.153L78.9174 357.26L76.7388 359.441L74.5602 361.621L75.4035 363.509C75.8672 364.547 76.2778 365.52 76.3158 365.671C76.3631 365.86 76.2778 366.142 76.0455 366.566C74.8538 368.741 74.276 370.094 73.7669 371.9C73.583 372.553 73.3559 373.171 73.2621 373.275C73.1685 373.378 72.1696 373.814 71.0425 374.243L68.9935 375.022V377.962V380.901H72.4681H75.9428L75.8787 380.133C75.8435 379.71 75.7913 379.134 75.7627 378.852C75.6099 377.349 76.0952 373.935 76.7417 371.966C77.2113 370.536 78.5259 367.949 79.4021 366.731C81.9659 363.165 85.676 360.513 89.8232 359.281C91.898 358.664 92.8292 358.543 95.4564 358.545C97.6089 358.547 97.9892 358.578 99.2809 358.852C101.059 359.229 102.374 359.68 103.993 360.468C107.927 362.383 110.957 365.395 112.928 369.348C113.804 371.105 114.286 372.476 114.64 374.21C114.897 375.472 115.117 378.054 115.036 378.852C115.008 379.134 114.955 379.71 114.92 380.133L114.856 380.901H118.331H121.805V377.962V375.022L119.756 374.243C118.629 373.814 117.63 373.378 117.537 373.275C117.443 373.171 117.216 372.553 117.032 371.9C116.529 370.117 115.775 368.336 114.882 366.82C114.323 365.872 114.311 365.951 115.315 363.693L116.236 361.619L114.059 359.439L111.881 357.26L109.872 358.153C108.767 358.644 107.768 359.046 107.652 359.047C107.536 359.047 106.947 358.77 106.342 358.431C105.01 357.683 103.079 356.88 101.642 356.475C101.057 356.311 100.469 356.108 100.335 356.024C100.173 355.924 99.8722 355.308 99.4368 354.188C99.0766 353.261 98.7067 352.311 98.6148 352.076L98.4479 351.65H95.3992C92.6021 351.65 92.3441 351.666 92.2708 351.849ZM89.8343 371.065C88.1037 371.531 87.2679 372.358 85.4896 375.368C85.0869 376.05 84.5591 376.833 84.3167 377.109C83.8904 377.594 83.171 378.056 82.8423 378.056C82.7543 378.056 82.3253 378.234 81.889 378.453C80.8744 378.96 79.9291 379.934 79.4324 380.982L79.0664 381.755L79.0279 384.06L78.9893 386.364H76.3475H73.7058L73.5692 385.987C73.3637 385.418 72.7337 384.747 72.0505 384.369C71.5153 384.073 71.329 384.031 70.53 384.033C69.7679 384.035 69.5267 384.085 69.0504 384.336C68.3719 384.695 67.8627 385.211 67.4996 385.909C67.2852 386.321 67.2333 386.599 67.2333 387.332C67.2333 388.348 67.4628 388.945 68.1237 389.647C69.0799 390.663 70.6962 390.942 71.9783 390.313C72.683 389.967 73.3514 389.28 73.5692 388.677L73.7058 388.299H78.634C83.455 388.299 83.5623 388.304 83.5623 388.523C83.5623 388.646 83.6684 389.029 83.798 389.376C84.1436 390.3 84.9882 391.17 86.0228 391.667L86.863 392.071V393.088V394.104H84.1543H81.4455L81.2951 393.688C81.1 393.149 80.3382 392.327 79.7545 392.027C79.4511 391.871 78.9973 391.772 78.4242 391.738C77.6735 391.693 77.4707 391.724 76.9445 391.966C76.1202 392.345 75.7048 392.719 75.3052 393.44C75.0067 393.979 74.969 394.156 74.969 395.015C74.969 395.886 75.004 396.044 75.3217 396.608C76.6563 398.977 79.9969 398.897 81.2407 396.466L81.5174 395.925H84.7529H87.9885L88.3078 395.651L88.6272 395.376L88.6657 393.68L88.7042 391.983L89.4327 391.666C90.3616 391.261 91.2912 390.296 91.6338 389.38C91.7643 389.031 91.8711 388.646 91.8711 388.523C91.8711 388.316 91.9538 388.299 92.9523 388.299H94.0336V392.616V396.933L94.3335 397.169C94.6275 397.4 94.7415 397.405 100.138 397.405H105.642L105.877 397.905C107.037 400.373 110.535 400.477 111.838 398.083C112.722 396.458 112.064 394.373 110.4 393.523C109.727 393.179 108.583 393.106 107.824 393.358C107.075 393.607 106.185 394.403 105.91 395.072L105.7 395.583L100.72 395.583L95.7409 395.584V391.942V388.299H97.0498C98.2745 388.299 98.3587 388.314 98.3587 388.523C98.3587 388.646 98.4648 389.029 98.5945 389.376C98.9241 390.257 99.7792 391.159 100.727 391.626C101.413 391.964 101.581 391.998 102.513 391.998C103.446 391.998 103.613 391.964 104.299 391.626C105.247 391.159 106.102 390.257 106.432 389.376C106.561 389.029 106.668 388.646 106.668 388.523C106.668 388.339 106.746 388.299 107.114 388.299H107.56L107.598 389.776C107.632 391.135 107.656 391.274 107.894 391.512L108.153 391.771L112.589 391.803L117.025 391.835L117.304 392.386C118.054 393.866 119.818 394.57 121.415 394.027C122.245 393.745 123.176 392.77 123.448 391.9C123.945 390.305 123.217 388.614 121.716 387.88C120.039 387.059 117.987 387.809 117.23 389.519L117.013 390.01L113.235 389.98L109.456 389.95L109.423 389.131L109.39 388.312L109.821 388.24C110.059 388.201 110.387 388.118 110.551 388.055C110.933 387.911 111.513 387.31 111.669 386.898C111.831 386.468 111.825 382.219 111.661 381.447C111.477 380.58 111.09 379.882 110.482 379.321C109.76 378.656 109.003 378.336 107.521 378.07C104.595 377.544 103.764 376.989 101.627 374.129C100.154 372.159 99.3904 371.492 98.1752 371.117C97.4861 370.904 97.1368 370.886 93.9363 370.893C91.2657 370.898 90.3045 370.939 89.8343 371.065ZM90.0061 372.893C89.2085 373.138 88.4445 373.963 87.4384 375.665C86.9761 376.448 86.4501 377.306 86.2696 377.572L85.9416 378.056H88.9632H91.9849V375.381V372.706L91.2735 372.714C90.8823 372.718 90.312 372.799 90.0061 372.893ZM93.806 375.381V378.056H98.2134H102.621L101.87 377.287C101.457 376.865 100.686 375.929 100.157 375.207C98.4773 372.917 98.0839 372.706 95.493 372.706H93.806V375.381ZM82.4459 380.225C81.8285 380.579 81.2291 381.29 80.9816 381.961C80.8994 382.184 80.8446 383.101 80.8393 384.344L80.8306 386.364H82.282H83.7334L84.0099 385.843C84.387 385.132 85.1807 384.377 85.9439 384.002C86.5072 383.725 86.7063 383.69 87.7167 383.69C88.7344 383.69 88.924 383.724 89.508 384.01C90.3009 384.4 91.1012 385.176 91.48 385.923L91.7611 386.478H95.1059H98.4508L98.8 385.859C99.2488 385.064 99.9587 384.386 100.749 383.998C101.303 383.725 101.506 383.69 102.513 383.69C103.531 383.69 103.72 383.724 104.304 384.01C105.097 384.4 105.898 385.176 106.276 385.923L106.558 386.478H108.083C108.922 386.478 109.689 386.447 109.788 386.409C109.944 386.35 109.968 386.042 109.968 384.153C109.968 381.625 109.858 381.109 109.206 380.571C108.34 379.857 108.741 379.877 95.2781 379.878L83.0501 379.879L82.4459 380.225ZM93.744 381.294C93.3908 381.647 93.3884 382.052 93.7368 382.457C93.9815 382.741 94.0937 382.777 94.8465 382.809C95.8007 382.85 96.1736 382.71 96.4056 382.227C96.5284 381.971 96.5309 381.843 96.4185 381.571C96.2229 381.099 96.0005 381.015 94.9465 381.015C94.1181 381.015 93.9946 381.044 93.744 381.294ZM86.75 385.635C85.4618 386.194 84.9384 387.804 85.6502 389.019C86.8885 391.132 90.0945 390.285 90.0945 387.844C90.0945 386.463 89.0717 385.447 87.6919 385.458C87.3925 385.461 86.9687 385.54 86.75 385.635ZM101.546 385.635C100.258 386.194 99.7348 387.804 100.447 389.019C101.679 391.122 104.912 390.269 104.895 387.846C104.886 386.458 103.866 385.447 102.488 385.458C102.189 385.461 101.765 385.54 101.546 385.635ZM69.9609 385.903C69.2992 386.173 68.8865 386.984 69.0447 387.704C69.2425 388.605 70.4708 389.132 71.2424 388.648C72.0146 388.163 72.2641 387.316 71.8395 386.619C71.4282 385.945 70.6166 385.635 69.9609 385.903ZM119.645 389.517C119.151 389.773 118.732 390.384 118.732 390.85C118.732 392.422 120.948 392.974 121.615 391.568C121.865 391.042 121.855 390.601 121.583 390.155C121.14 389.429 120.331 389.163 119.645 389.517ZM77.5333 393.681C77.1187 393.89 76.733 394.528 76.7336 395.003C76.7341 395.477 77.0535 396.059 77.4583 396.324C77.8242 396.564 78.5352 396.569 78.9887 396.334C80.3589 395.626 79.8209 393.533 78.2697 393.537C78.0193 393.538 77.688 393.602 77.5333 393.681ZM108.081 395.229C107.712 395.454 107.35 396.077 107.35 396.487C107.35 397.289 108.059 397.99 108.883 398.002C110.064 398.02 110.811 396.733 110.2 395.732C109.777 395.037 108.783 394.801 108.081 395.229Z" fill="white"></path><rect width="81.0273" height="81.0273" transform="translate(224.914 334.305)" fill="url(#paint6_linear_14016_12542)"></rect><path fill-rule="evenodd" clip-rule="evenodd" d="M264.877 349.997C264.407 350.284 264.352 350.591 264.352 352.953C264.352 355.329 264.413 355.643 264.925 355.908C265.299 356.101 265.553 356.101 265.927 355.908C266.441 355.643 266.501 355.331 266.501 352.936C266.501 350.54 266.441 350.228 265.927 349.963C265.537 349.761 265.248 349.77 264.877 349.997ZM247.786 357.175C247.408 357.553 247.345 358.002 247.614 358.408C247.877 358.804 250.607 361.533 250.892 361.684C251.61 362.064 252.436 361.632 252.436 360.876C252.436 360.669 252.364 360.391 252.276 360.258C252.013 359.862 249.283 357.134 248.998 356.982C248.546 356.743 248.156 356.805 247.786 357.175ZM281.679 357.125C281.238 357.453 278.814 359.901 278.577 360.258C278.14 360.918 278.599 361.824 279.371 361.824C279.642 361.824 279.868 361.74 280.136 361.541C280.578 361.213 283.001 358.765 283.238 358.408C283.507 358.002 283.444 357.553 283.066 357.175C282.635 356.743 282.214 356.728 281.679 357.125ZM268.112 358.266C267.912 358.369 265.835 361.063 261.519 366.82C258.054 371.443 255.163 375.357 255.093 375.518C254.932 375.892 255.079 376.389 255.435 376.669C255.676 376.858 255.824 376.866 259.433 376.866C261.788 376.866 263.18 376.901 263.18 376.96C263.18 377.012 262.78 380.056 262.292 383.724C261.644 388.592 261.426 390.483 261.486 390.726C261.642 391.356 262.449 391.664 263 391.303C263.275 391.123 275.734 372.247 275.83 371.865C275.923 371.492 275.637 370.954 275.245 370.768C274.967 370.637 274.395 370.614 271.312 370.614H267.705L268.667 364.845C269.593 359.291 269.623 359.064 269.474 358.748C269.327 358.439 268.84 358.109 268.537 358.114C268.465 358.116 268.274 358.184 268.112 358.266ZM262.496 368.979C260.159 372.095 258.233 374.682 258.216 374.726C258.199 374.771 259.679 374.82 261.505 374.835L264.825 374.863L265.072 375.095C265.207 375.223 265.345 375.447 265.377 375.594C265.424 375.806 264.274 385.064 264.111 385.792C264.079 385.935 264.096 385.951 264.186 385.861C264.25 385.797 266.218 382.835 268.56 379.278L272.818 372.812L269.484 372.763C265.804 372.709 265.783 372.706 265.524 372.08C265.41 371.805 265.472 371.321 266.098 367.566C266.483 365.252 266.787 363.348 266.772 363.335C266.757 363.322 264.833 365.862 262.496 368.979ZM241.039 373.883C240.713 374.025 240.422 374.465 240.422 374.814C240.422 375.175 240.717 375.606 241.06 375.75C241.313 375.856 241.906 375.889 243.547 375.889C245.189 375.889 245.782 375.856 246.035 375.75C246.378 375.606 246.673 375.175 246.673 374.814C246.673 374.454 246.378 374.022 246.035 373.879C245.565 373.682 241.492 373.686 241.039 373.883ZM284.796 373.883C284.471 374.025 284.18 374.465 284.18 374.814C284.18 375.175 284.474 375.606 284.818 375.75C285.071 375.856 285.664 375.889 287.305 375.889C288.947 375.889 289.539 375.856 289.793 375.75C290.136 375.606 290.431 375.175 290.431 374.814C290.431 374.454 290.136 374.022 289.793 373.879C289.323 373.682 285.25 373.686 284.796 373.883ZM250.717 388.088C250.275 388.415 247.851 390.863 247.614 391.221C247.345 391.627 247.408 392.076 247.786 392.454C248.218 392.885 248.639 392.9 249.173 392.504C249.615 392.176 252.039 389.728 252.276 389.37C252.713 388.71 252.253 387.805 251.481 387.805C251.211 387.805 250.985 387.889 250.717 388.088ZM278.702 388.09C278.378 388.415 278.321 388.904 278.557 389.348C278.708 389.634 281.437 392.364 281.833 392.626C282.239 392.895 282.688 392.833 283.066 392.454C283.497 392.023 283.512 391.602 283.115 391.067C282.788 390.626 280.34 388.202 279.982 387.965C279.587 387.703 279.036 387.757 278.702 388.09ZM264.877 393.754C264.71 393.856 264.523 394.083 264.462 394.257C264.291 394.749 264.314 398.758 264.491 399.181C264.634 399.524 265.066 399.819 265.426 399.819C265.786 399.819 266.218 399.524 266.362 399.181C266.468 398.928 266.501 398.335 266.501 396.693C266.501 394.298 266.441 393.986 265.927 393.721C265.537 393.519 265.248 393.528 264.877 393.754Z" fill="white"></path><rect width="81.0273" height="81.0273" transform="translate(394.941 334.305)" fill="url(#paint7_linear_14016_12542)"></rect><path fill-rule="evenodd" clip-rule="evenodd" d="M433.818 353.819C433.348 353.919 429.39 355.564 422.076 358.697C411.814 363.093 411.006 363.457 410.518 363.903C409.79 364.568 409.517 365.209 409.515 366.259C409.515 366.872 409.567 367.183 409.729 367.538C410.198 368.559 410.839 369.025 412.98 369.904L413.917 370.288V376.237V382.185L413.625 382.307C412.467 382.786 411.961 384.333 412.566 385.546C412.779 385.974 412.811 386.12 412.719 386.25C412.44 386.642 412.215 387.151 412.155 387.527C412.12 387.75 411.955 389.429 411.788 391.258C411.488 394.555 411.487 394.588 411.676 395.015C411.78 395.251 412.02 395.555 412.208 395.689C412.535 395.922 412.632 395.934 414.423 395.965C415.454 395.982 416.446 395.968 416.628 395.934C417.078 395.85 417.637 395.337 417.773 394.884C417.861 394.591 417.818 393.778 417.569 391.012C417.396 389.086 417.211 387.358 417.158 387.173C417.104 386.987 416.95 386.666 416.814 386.461L416.567 386.088L416.828 385.559C417.465 384.272 417.007 383.002 415.6 382.159C415.445 382.066 415.433 381.601 415.459 376.521L415.487 370.984L417.563 371.872L419.639 372.761L419.701 376.245C419.769 380.107 419.791 380.256 420.462 381.499C422.016 384.377 426.115 386.592 431.458 387.442C433.094 387.703 437.68 387.703 439.316 387.442C443.715 386.742 447.26 385.139 449.263 382.943C449.974 382.164 450.609 381.093 450.857 380.253C450.976 379.849 451.026 378.932 451.074 376.246L451.135 372.763L455.186 371.023C457.414 370.066 459.425 369.186 459.655 369.067C460.206 368.782 460.857 368.03 461.064 367.441C461.155 367.181 461.272 366.889 461.322 366.792C461.45 366.549 461.442 365.572 461.313 365.652C461.258 365.686 461.212 365.632 461.211 365.531C461.209 365.143 460.718 364.314 460.231 363.876C459.774 363.465 458.662 362.966 448.695 358.697C440.482 355.179 437.466 353.931 436.885 353.811C435.929 353.614 434.759 353.617 433.818 353.819ZM434.181 355.327C433.584 355.456 412.26 364.51 411.722 364.862C411.197 365.206 410.924 365.997 411.095 366.679C411.255 367.312 411.697 367.661 413.123 368.276L414.396 368.825L422.79 367.365C427.407 366.563 431.241 365.884 431.311 365.858C431.38 365.831 431.437 365.74 431.437 365.655C431.437 365.401 432.15 364.691 432.67 364.428C433.461 364.027 434.232 363.868 435.387 363.868C436.933 363.868 438.057 364.216 438.814 364.928C439.265 365.353 439.438 365.709 439.438 366.208C439.438 367.721 437.639 368.723 435.118 368.615C433.797 368.558 432.873 368.289 432.178 367.759L431.696 367.39L424.503 368.635C420.546 369.32 417.277 369.909 417.237 369.945C417.153 370.02 432.842 376.765 433.791 377.061C434.606 377.315 436.058 377.331 436.878 377.095C437.2 377.002 442.298 374.855 448.208 372.323C459.775 367.367 459.456 367.524 459.68 366.664C459.899 365.829 459.519 365.086 458.662 364.671C458.366 364.527 453.427 362.398 447.688 359.941C440.747 356.968 437.017 355.422 436.548 355.323C435.688 355.14 435.035 355.141 434.181 355.327ZM433.969 365.588C433.319 365.796 432.855 366.076 432.855 366.261C432.855 366.449 433.502 366.803 434.157 366.973C435.253 367.259 436.714 367.102 437.55 366.609C438.005 366.34 438.014 366.182 437.59 365.923C436.726 365.395 435.054 365.24 433.969 365.588ZM409.492 366.259C409.493 366.593 409.512 366.718 409.534 366.536C409.557 366.354 409.556 366.08 409.533 365.928C409.51 365.776 409.492 365.925 409.492 366.259ZM421.328 374.981C421.359 376.424 421.374 376.516 421.674 377.146C422.292 378.442 423.36 379.481 425.091 380.469C426.744 381.413 428.734 382.073 431.285 382.521C432.714 382.772 436.308 382.893 437.767 382.739C438.854 382.624 439.289 382.742 439.398 383.18C439.493 383.555 439.332 383.958 439.03 384.102C438.892 384.168 438.001 384.269 437.051 384.325C434.215 384.494 431.416 384.239 428.778 383.571C426.032 382.875 423.386 381.522 421.937 380.074C421.287 379.423 421.238 379.608 421.776 380.684C423.003 383.137 426.839 385.152 431.741 385.92C433.386 386.177 437.388 386.177 439.033 385.92C443.935 385.152 447.771 383.137 448.998 380.684C449.56 379.56 449.489 379.423 448.725 380.158C448.374 380.495 447.701 381.021 447.231 381.326C445.654 382.349 445.194 382.497 444.806 382.109C444.603 381.906 444.533 381.359 444.681 381.135C444.722 381.073 445.204 380.754 445.753 380.427C447.555 379.351 448.519 378.399 449.131 377.092C449.394 376.53 449.416 376.383 449.446 374.981C449.473 373.76 449.454 373.483 449.345 373.528C449.271 373.558 446.656 374.678 443.532 376.016C440.409 377.353 437.56 378.528 437.202 378.626C436.311 378.871 434.46 378.87 433.564 378.625C433.202 378.525 430.354 377.35 427.235 376.013C424.115 374.676 421.503 373.558 421.429 373.528C421.32 373.483 421.301 373.76 421.328 374.981ZM441.637 382.056C440.696 382.331 440.451 382.523 440.451 382.985C440.451 383.402 440.752 383.729 441.135 383.729C441.67 383.729 443.228 383.239 443.413 383.012C443.827 382.505 443.448 381.795 442.774 381.815C442.582 381.821 442.071 381.929 441.637 382.056ZM414.122 383.828C413.668 384.282 413.781 384.954 414.358 385.232C415.17 385.622 415.897 384.619 415.327 383.895C415.061 383.556 414.429 383.521 414.122 383.828ZM414.271 387.01C414.104 387.086 413.903 387.256 413.824 387.388C413.694 387.605 413.123 392.97 413.111 394.084L413.107 394.464H414.733H416.36L416.302 394.034C416.271 393.797 416.127 392.284 415.982 390.671C415.838 389.059 415.68 387.637 415.633 387.512C415.455 387.045 414.759 386.788 414.271 387.01Z" fill="white"></path><rect width="81.0273" height="81.0273" transform="translate(564.969 334.305)" fill="url(#paint8_linear_14016_12542)"></rect><path fill-rule="evenodd" clip-rule="evenodd" d="M602.981 349.945C602.47 350.107 601.597 351.01 601.441 351.54C601.357 351.824 601.314 352.798 601.314 354.411V356.854L600.363 357.036C597.513 357.582 594.382 358.912 591.811 360.667C588.218 363.121 585.093 366.959 583.495 370.881C583.276 371.42 583.22 371.48 582.944 371.48C582.322 371.48 581.785 371.727 581.254 372.258C580.596 372.916 580.477 373.308 580.477 374.805C580.477 375.903 580.491 375.984 580.732 376.225C580.942 376.435 581.091 376.481 581.566 376.481H582.144V387.316V398.152H581.566C581.091 398.152 580.942 398.198 580.732 398.408C580.394 398.746 580.394 399.225 580.732 399.563L580.988 399.819H605.481H629.975L630.23 399.563C630.569 399.225 630.569 398.746 630.23 398.408C630.02 398.198 629.871 398.152 629.397 398.152H628.819V387.316V376.481H629.397C629.871 376.481 630.02 376.435 630.23 376.225C630.471 375.984 630.486 375.903 630.486 374.805C630.486 373.308 630.367 372.916 629.708 372.258C629.178 371.728 628.641 371.48 628.021 371.48C627.761 371.48 627.694 371.421 627.578 371.089C627.302 370.302 626.206 368.172 625.582 367.208C623.886 364.594 621.568 362.256 618.921 360.491C616.976 359.193 614.464 358.039 612.305 357.45L611.255 357.163L611.595 356.658C612.024 356.02 612.148 355.57 612.148 354.654C612.147 353.344 611.476 352.397 610.11 351.778C609.699 351.591 609.43 351.4 609.387 351.264C609.264 350.875 608.673 350.303 608.139 350.054C607.643 349.823 607.51 349.812 605.481 349.821C604.243 349.826 603.192 349.879 602.981 349.945ZM603.237 351.732C603.075 351.893 602.981 352.107 602.981 352.31C602.981 352.513 603.075 352.726 603.237 352.887C603.49 353.141 603.508 353.143 605.481 353.143C607.454 353.143 607.472 353.141 607.726 352.887C607.887 352.726 607.982 352.513 607.982 352.31C607.982 352.107 607.887 351.893 607.726 351.732C607.472 351.478 607.454 351.476 605.481 351.476C603.508 351.476 603.49 351.478 603.237 351.732ZM609.649 354.821V356.305L609.919 356.053C610.324 355.674 610.482 355.296 610.482 354.704C610.482 354.077 610.384 353.861 609.962 353.56L609.649 353.337V354.821ZM602.981 356.246C602.981 357.825 603.077 358.265 603.525 358.742C603.738 358.969 603.814 358.978 605.481 358.978C607.149 358.978 607.225 358.969 607.438 358.742C607.886 358.265 607.982 357.825 607.982 356.246V354.758H605.481H602.981V356.246ZM599.803 358.868C598.201 359.284 596.986 359.729 595.532 360.434C591.291 362.486 587.737 365.997 585.626 370.217C585.315 370.839 585.061 371.378 585.061 371.414C585.061 371.45 594.253 371.48 605.488 371.48H625.916L625.843 371.246C625.803 371.117 625.56 370.592 625.304 370.079C622.505 364.486 617.224 360.341 610.951 358.815C610.378 358.675 609.816 358.561 609.701 358.561C609.554 358.561 609.403 358.733 609.188 359.144C609.021 359.464 608.681 359.896 608.433 360.103L607.982 360.48V361.974C607.982 363.42 607.974 363.475 607.726 363.723C607.472 363.977 607.454 363.979 605.481 363.979C603.508 363.979 603.49 363.977 603.237 363.723C602.989 363.475 602.981 363.42 602.981 361.974V360.48L602.53 360.103C602.282 359.896 601.942 359.464 601.775 359.144C601.41 358.447 601.419 358.448 599.803 358.868ZM604.648 361.478V362.312H605.481H606.315V361.478V360.645H605.481H604.648V361.478ZM582.399 373.403C582.189 373.613 582.144 373.762 582.144 374.236V374.814H605.481H628.819V374.236C628.819 373.762 628.773 373.613 628.563 373.403L628.308 373.147H605.481H582.655L582.399 373.403ZM583.811 387.316V398.152H584.644H585.478V392.573V386.994L585.733 386.739L585.989 386.483H588.395H590.801L591.056 386.739L591.312 386.994V392.573V398.152H592.145H592.979V392.573V386.994L593.235 386.739L593.49 386.483H605.481H617.472L617.728 386.739L617.984 386.994V392.573V398.152H618.817H619.651V392.573V386.994L619.907 386.739L620.162 386.483H622.568H624.974L625.229 386.739L625.485 386.994V392.573V398.152H626.319H627.152V387.316V376.481H605.481H583.811V387.316ZM585.733 378.404L585.478 378.659V381.065V383.471L585.733 383.727C585.987 383.98 586.005 383.982 587.978 383.982C589.951 383.982 589.969 383.98 590.223 383.727L590.478 383.471V381.065V378.659L590.223 378.404C589.969 378.15 589.951 378.148 587.978 378.148C586.005 378.148 585.987 378.15 585.733 378.404ZM592.401 378.404L592.145 378.659V381.065V383.471L592.401 383.727C592.655 383.98 592.673 383.982 594.646 383.982C596.619 383.982 596.637 383.98 596.891 383.727L597.146 383.471V381.065V378.659L596.891 378.404C596.637 378.15 596.619 378.148 594.646 378.148C592.673 378.148 592.655 378.15 592.401 378.404ZM599.069 378.404L598.813 378.659V381.065V383.471L599.069 383.727L599.325 383.982H605.481H611.638L611.894 383.727L612.149 383.471V381.065V378.659L611.894 378.404L611.638 378.148H605.481H599.325L599.069 378.404ZM614.072 378.404L613.816 378.659V381.065V383.471L614.072 383.727C614.326 383.98 614.344 383.982 616.317 383.982C618.29 383.982 618.308 383.98 618.561 383.727L618.817 383.471V381.065V378.659L618.561 378.404C618.308 378.15 618.29 378.148 616.317 378.148C614.344 378.148 614.326 378.15 614.072 378.404ZM620.74 378.404L620.484 378.659V381.065V383.471L620.74 383.727C620.994 383.98 621.012 383.982 622.985 383.982C624.958 383.982 624.976 383.98 625.229 383.727L625.485 383.471V381.065V378.659L625.229 378.404C624.976 378.15 624.958 378.148 622.985 378.148C621.012 378.148 620.994 378.15 620.74 378.404ZM587.145 381.065V382.315H587.978H588.811V381.065V379.815H587.978H587.145V381.065ZM593.812 381.065V382.315H594.646H595.479V381.065V379.815H594.646H593.812V381.065ZM600.48 381.065V382.315H605.481H610.482V381.065V379.815H605.481H600.48V381.065ZM615.483 381.065V382.315H616.317H617.15V381.065V379.815H616.317H615.483V381.065ZM622.151 381.065V382.315H622.985H623.818V381.065V379.815H622.985H622.151V381.065ZM587.145 393.151V398.152H588.395H589.645V393.151V388.15H588.395H587.145V393.151ZM594.646 393.151V398.152H595.479H596.313V394.657V391.162L596.569 390.906L596.824 390.65H605.481H614.138L614.394 390.906L614.65 391.162V394.657V398.152H615.483H616.317V393.151V388.15H605.481H594.646V393.151ZM621.318 393.151V398.152H622.568H623.818V393.151V388.15H622.568H621.318V393.151ZM597.98 395.235V398.152H598.813H599.647V395.235V392.317H598.813H597.98V395.235ZM601.314 395.235V398.152H605.481H609.649V395.235V392.317H605.481H601.314V395.235ZM611.316 395.235V398.152H612.149H612.983V395.235V392.317H612.149H611.316V395.235Z" fill="white"></path><rect width="81.0273" height="81.0273" transform="translate(734.996 334.305)" fill="url(#paint9_linear_14016_12542)"></rect><path fill-rule="evenodd" clip-rule="evenodd" d="M787.84 349.94C787.518 350.011 780.481 352.032 772.203 354.43C761.635 357.49 756.942 358.892 756.444 359.134C754.578 360.045 753.337 362.254 753.517 364.348C753.55 364.726 753.928 366.202 754.434 367.923L755.296 370.855L755.346 383.169C755.402 396.644 755.356 395.688 756.013 396.95C756.74 398.344 758.282 399.474 759.806 399.728C760.272 399.806 762.369 399.831 766.704 399.812L772.932 399.784L773.192 399.524C773.556 399.16 773.556 398.551 773.192 398.187L772.932 397.927L766.459 397.877C759.563 397.824 759.757 397.838 758.961 397.337C758.226 396.875 757.707 396.185 757.454 395.334C757.319 394.88 757.299 393.927 757.299 387.94V381.068L776.43 381.092L795.561 381.117L795.587 387.616C795.601 391.316 795.573 394.404 795.52 394.785C795.346 396.049 794.625 397.031 793.477 397.569L792.922 397.829L786.472 397.878C782.924 397.905 779.943 397.965 779.847 398.012C779.636 398.115 779.387 398.572 779.387 398.855C779.387 399.192 779.652 399.602 779.949 399.725C780.157 399.811 781.891 399.833 786.722 399.811C793.174 399.781 793.219 399.779 793.794 399.562C794.608 399.254 795.184 398.898 795.795 398.324C796.474 397.688 796.907 397.009 797.245 396.053L797.516 395.288V382.941V370.595L797.197 370.31L796.877 370.024L780.094 370.017C770.862 370.013 763.376 369.981 763.456 369.947C763.537 369.913 770.747 367.813 779.48 365.281C796.708 360.285 795.904 360.551 795.903 359.847C795.902 359.292 794.186 353.539 793.782 352.736C792.715 350.614 790.178 349.42 787.84 349.94ZM785.672 352.556C784.157 353.001 782.893 353.389 782.863 353.419C782.833 353.45 783.786 354.413 784.982 355.56C786.178 356.708 787.755 358.232 788.487 358.947L789.819 360.248L791.713 359.703C792.754 359.403 793.635 359.128 793.669 359.093C793.754 359.007 792.338 354.156 792.083 353.658C791.535 352.592 790.345 351.84 789.111 351.781C788.491 351.752 788.169 351.824 785.672 352.556ZM777.897 354.809C776.567 355.195 775.478 355.538 775.478 355.57C775.478 355.603 776.478 356.589 777.701 357.761C778.923 358.933 780.496 360.452 781.195 361.136L782.465 362.38L785.032 361.638C786.444 361.23 787.586 360.858 787.571 360.811C787.504 360.609 780.609 354.095 780.469 354.1C780.384 354.104 779.227 354.423 777.897 354.809ZM770.608 356.926L768.036 357.673L771.556 361.063C773.491 362.928 775.126 364.454 775.189 364.454C775.364 364.454 780.11 363.073 780.192 362.998C780.252 362.942 775.705 358.498 773.763 356.714L773.181 356.179L770.608 356.926ZM763.359 359.022C762.042 359.41 760.904 359.748 760.83 359.774C760.748 359.802 762.073 361.146 764.233 363.225L767.769 366.632L770.23 365.924C771.584 365.534 772.746 365.186 772.813 365.149C772.89 365.107 771.66 363.862 769.418 361.715C767.485 359.862 765.869 358.34 765.828 358.331C765.787 358.323 764.675 358.633 763.359 359.022ZM757.777 360.676C756.788 361.085 756.186 361.653 755.745 362.592C755.537 363.037 755.492 363.274 755.494 363.916C755.497 364.595 755.591 365.02 756.213 367.141C756.606 368.485 756.96 369.619 756.999 369.661C757.054 369.72 765.47 367.359 765.573 367.256C765.62 367.21 758.565 360.496 758.445 360.472C758.379 360.459 758.079 360.551 757.777 360.676ZM757.299 375.546V379.114H759.528H761.757L763.779 375.612C764.892 373.686 765.802 372.08 765.802 372.044C765.802 372.009 763.889 371.979 761.55 371.979H757.299V375.546ZM768.011 372.199C767.933 372.32 767.007 373.914 765.954 375.742L764.038 379.065L766.697 379.091C768.16 379.105 769.389 379.083 769.429 379.042C769.469 379.001 770.39 377.428 771.475 375.546C772.56 373.665 773.467 372.093 773.491 372.052C773.515 372.012 772.323 371.979 770.843 371.979C768.159 371.979 768.151 371.98 768.011 372.199ZM775.74 372.052C775.716 372.093 774.849 373.599 773.812 375.4C772.775 377.2 771.863 378.773 771.785 378.894L771.643 379.114L774.367 379.111L777.09 379.108L779.093 375.629C780.195 373.716 781.111 372.112 781.129 372.065C781.169 371.961 775.8 371.948 775.74 372.052ZM781.414 375.494C780.299 377.426 779.387 379.03 779.387 379.06C779.387 379.089 780.59 379.114 782.061 379.114H784.735L785.959 376.988C786.632 375.819 787.559 374.214 788.02 373.421L788.857 371.979L786.15 371.98L783.442 371.981L781.414 375.494ZM790.98 372.199C790.904 372.32 790.083 373.738 789.156 375.351C788.229 376.963 787.363 378.47 787.231 378.698L786.991 379.114H791.301H795.61V375.546V371.979H793.364C791.142 371.979 791.117 371.981 790.98 372.199ZM773.23 383.586C773.043 383.679 772.835 383.866 772.768 384C772.675 384.186 772.646 385.485 772.644 389.447L772.643 394.65L772.926 394.967C773.465 395.569 773.45 395.576 778.42 392.706C781.641 390.846 782.922 390.056 783.038 389.861C783.27 389.467 783.235 389.126 782.929 388.795C782.717 388.567 775.515 384.323 774.256 383.685C773.747 383.427 773.579 383.411 773.23 383.586ZM774.598 389.367C774.598 391.145 774.62 392.601 774.648 392.601C774.748 392.601 780.168 389.442 780.167 389.385C780.165 389.336 776.712 387.312 775.062 386.392L774.598 386.134V389.367ZM775.977 398.01C775.044 398.546 775.585 400.018 776.631 399.788C777.334 399.633 777.622 398.708 777.122 398.208C776.833 397.918 776.297 397.826 775.977 398.01Z" fill="white"></path><path d="M699.012 155.689C699.012 156.426 699.609 157.023 700.345 157.023C701.081 157.023 701.678 156.426 701.678 155.689C701.678 154.953 701.081 154.356 700.345 154.356C699.609 154.356 699.012 154.953 699.012 155.689ZM700.345 226.26V226.51H700.595V226.26H700.345ZM700.095 155.689V226.26H700.595V155.689H700.095ZM700.345 226.01H682.336V226.51H700.345V226.01Z" fill="#9C9C9C"></path><path d="M171.25 155.689C171.25 156.426 170.653 157.023 169.917 157.023C169.18 157.023 168.583 156.426 168.583 155.689C168.583 154.953 169.18 154.356 169.917 154.356C170.653 154.356 171.25 154.953 171.25 155.689ZM169.917 226.26V226.51H169.667V226.26H169.917ZM170.167 155.689V226.26H169.667V155.689H170.167ZM169.917 226.01H187.926V226.51H169.917V226.01Z" fill="#9C9C9C"></path><path d="M96.2501 320.571C96.2501 319.835 95.6532 319.238 94.9168 319.238C94.1804 319.238 93.5835 319.835 93.5835 320.571C93.5835 321.308 94.1804 321.905 94.9168 321.905C95.6532 321.905 96.2501 321.308 96.2501 320.571ZM94.9168 250.001V249.751H94.6668V250.001H94.9168ZM95.1668 320.571V250.001H94.6668V320.571H95.1668ZM94.9168 250.251H187.926V249.751H94.9168V250.251Z" fill="#9C9C9C"></path><path d="M774.176 320.571C774.176 319.835 774.773 319.238 775.509 319.238C776.245 319.238 776.842 319.835 776.842 320.571C776.842 321.308 776.245 321.905 775.509 321.905C774.773 321.905 774.176 321.308 774.176 320.571ZM775.509 250.001V249.751H775.759V250.001H775.509ZM775.259 320.571V250.001H775.759V320.571H775.259ZM775.509 250.251H682.5V249.751H775.509V250.251Z" fill="#9C9C9C"></path><path d="M345.608 154.518C345.608 155.254 346.205 155.851 346.941 155.851C347.678 155.851 348.275 155.254 348.275 154.518C348.275 153.782 347.678 153.185 346.941 153.185C346.205 153.185 345.608 153.782 345.608 154.518ZM346.691 154.518L346.691 204.556L347.191 204.556L347.191 154.518L346.691 154.518Z" fill="#9C9C9C"></path><path d="M522.639 154.518C522.639 155.254 523.236 155.851 523.973 155.851C524.709 155.851 525.306 155.254 525.306 154.518C525.306 153.782 524.709 153.185 523.973 153.185C523.236 153.185 522.639 153.782 522.639 154.518ZM523.723 154.518L523.723 204.556L524.223 204.556L524.223 154.518L523.723 154.518Z" fill="#9C9C9C"></path><path d="M604.151 326.172C604.151 326.908 604.748 327.505 605.484 327.505C606.221 327.505 606.818 326.908 606.818 326.172C606.818 325.435 606.221 324.839 605.484 324.839C604.748 324.839 604.151 325.435 604.151 326.172ZM605.234 276.134L605.234 326.172L605.734 326.172L605.734 276.134L605.234 276.134Z" fill="#9C9C9C"></path><path d="M434.124 326.172C434.124 326.908 434.721 327.505 435.457 327.505C436.193 327.505 436.79 326.908 436.79 326.172C436.79 325.435 436.193 324.839 435.457 324.839C434.721 324.839 434.124 325.435 434.124 326.172ZM435.207 276.134L435.207 326.172L435.707 326.172L435.707 276.134L435.207 276.134Z" fill="#9C9C9C"></path><path d="M264.096 326.172C264.096 326.908 264.693 327.505 265.43 327.505C266.166 327.505 266.763 326.908 266.763 326.172C266.763 325.435 266.166 324.839 265.43 324.839C264.693 324.839 264.096 325.435 264.096 326.172ZM265.18 276.134L265.18 326.172L265.68 326.172L265.68 276.134L265.18 276.134Z" fill="#9C9C9C"></path><defs><linearGradient id="paint0_linear_14016_12542" x1="-19.3536" y1="-13.748" x2="936.768" y2="414.216" gradientUnits="userSpaceOnUse"><stop offset="0.0577225" stop-color="#12054E"></stop><stop offset="1" stop-color="#363885"></stop></linearGradient><linearGradient id="paint1_linear_14016_12542" x1="-1.1496e-06" y1="4.10681" x2="81.0273" y2="90.3408" gradientUnits="userSpaceOnUse"><stop stop-color="#567CFF"></stop><stop offset="1" stop-color="#2814F1"></stop></linearGradient><linearGradient id="paint2_linear_14016_12542" x1="-1.1496e-06" y1="4.10681" x2="81.0273" y2="90.3408" gradientUnits="userSpaceOnUse"><stop stop-color="#567CFF"></stop><stop offset="1" stop-color="#2814F1"></stop></linearGradient><linearGradient id="paint3_linear_14016_12542" x1="-1.1496e-06" y1="4.10681" x2="81.0273" y2="90.3408" gradientUnits="userSpaceOnUse"><stop stop-color="#567CFF"></stop><stop offset="1" stop-color="#2814F1"></stop></linearGradient><linearGradient id="paint4_linear_14016_12542" x1="-1.1496e-06" y1="4.10681" x2="81.0273" y2="90.3408" gradientUnits="userSpaceOnUse"><stop stop-color="#567CFF"></stop><stop offset="1" stop-color="#2814F1"></stop></linearGradient><linearGradient id="paint5_linear_14016_12542" x1="-1.1496e-06" y1="4.10681" x2="81.0273" y2="90.3408" gradientUnits="userSpaceOnUse"><stop stop-color="#567CFF"></stop><stop offset="1" stop-color="#2814F1"></stop></linearGradient><linearGradient id="paint6_linear_14016_12542" x1="-1.1496e-06" y1="4.10681" x2="81.0273" y2="90.3408" gradientUnits="userSpaceOnUse"><stop stop-color="#567CFF"></stop><stop offset="1" stop-color="#2814F1"></stop></linearGradient><linearGradient id="paint7_linear_14016_12542" x1="-1.1496e-06" y1="4.10681" x2="81.0273" y2="90.3408" gradientUnits="userSpaceOnUse"><stop stop-color="#567CFF"></stop><stop offset="1" stop-color="#2814F1"></stop></linearGradient><linearGradient id="paint8_linear_14016_12542" x1="-1.1496e-06" y1="4.10681" x2="81.0273" y2="90.3408" gradientUnits="userSpaceOnUse"><stop stop-color="#567CFF"></stop><stop offset="1" stop-color="#2814F1"></stop></linearGradient><linearGradient id="paint9_linear_14016_12542" x1="-1.1496e-06" y1="4.10681" x2="81.0273" y2="90.3408" gradientUnits="userSpaceOnUse"><stop stop-color="#567CFF"></stop><stop offset="1" stop-color="#2814F1"></stop></linearGradient></defs></svg>