<svg width="274" height="48" viewBox="0 0 274 48" fill="none" xmlns="http://www.w3.org/2000/svg">
<g clip-path="url(#clip0_6236_10461)">
<path d="M33.783 14.482H35.3219L39.708 10.0958L39.9235 8.23367C37.4109 6.01593 34.3743 4.47534 31.1007 3.75743C27.8272 3.03953 24.4246 3.16801 21.2145 4.13074C18.0043 5.09347 15.0926 6.85866 12.7544 9.25958C10.4162 11.6605 8.72858 14.6179 7.85107 17.8523C8.33971 17.652 8.88098 17.6196 9.39006 17.76L18.1623 16.3133C18.1623 16.3133 18.6086 15.5746 18.8394 15.6208C20.719 13.5565 23.3166 12.2887 26.1004 12.077C28.8841 11.8653 31.6436 12.7257 33.8137 14.482H33.783Z" fill="#EA4335"/>
<path d="M45.9565 17.8528C44.9483 14.1402 42.8784 10.8026 40.0006 8.24951L33.8447 14.4055C35.1276 15.4538 36.1558 16.7797 36.8516 18.2833C37.5474 19.7869 37.8927 21.4288 37.8614 23.0853V24.178C38.5809 24.178 39.2933 24.3197 39.958 24.5951C40.6228 24.8704 41.2267 25.274 41.7355 25.7827C42.2442 26.2915 42.6478 26.8954 42.9231 27.5602C43.1985 28.2249 43.3402 28.9373 43.3402 29.6568C43.3402 30.3763 43.1985 31.0887 42.9231 31.7534C42.6478 32.4181 42.2442 33.0221 41.7355 33.5309C41.2267 34.0396 40.6228 34.4432 39.958 34.7185C39.2933 34.9939 38.5809 35.1356 37.8614 35.1356H26.9038L25.8112 36.2436V42.8151L26.9038 43.9078H37.8614C40.9213 43.9316 43.9075 42.9699 46.3785 41.165C48.8494 39.36 50.6737 36.8077 51.5816 33.8855C52.4895 30.9633 52.4327 27.8265 51.4197 24.9392C50.4066 22.0518 48.4911 19.5671 45.9565 17.8528Z" fill="#4285F4"/>
<path d="M15.9308 43.8462H26.8884V35.074H15.9308C15.1501 35.0738 14.3786 34.9059 13.6685 34.5815L12.1295 35.0586L7.71263 39.4447L7.32788 40.9837C9.80477 42.8541 12.8271 43.8597 15.9308 43.8462Z" fill="#34A853"/>
<path d="M15.9308 15.3897C12.9618 15.4075 10.0725 16.3521 7.6664 18.0916C5.26033 19.8311 3.45763 22.2787 2.5101 25.0924C1.56257 27.9062 1.51753 30.9457 2.38126 33.7863C3.24499 36.6269 4.97436 39.1268 7.32784 40.9369L13.6838 34.5809C12.8761 34.216 12.169 33.6605 11.6231 32.9622C11.0773 32.2639 10.709 31.4436 10.5498 30.5717C10.3907 29.6998 10.4455 28.8023 10.7095 27.9562C10.9735 27.1101 11.4388 26.3407 12.0655 25.7139C12.6922 25.0872 13.4617 24.6219 14.3078 24.3579C15.1539 24.0939 16.0514 24.0391 16.9233 24.1983C17.7952 24.3574 18.6155 24.7257 19.3138 25.2716C20.0121 25.8174 20.5675 26.5245 20.9325 27.3323L27.2885 20.9763C25.9544 19.2322 24.235 17.8204 22.2646 16.8513C20.2943 15.8821 18.1265 15.3819 15.9308 15.3897Z" fill="#FBBC05"/>
<path d="M81.3993 37.721C79.5127 37.745 77.6407 37.388 75.8953 36.6714C74.15 35.9547 72.5673 34.8932 71.242 33.5503C69.8749 32.2645 68.79 30.7085 68.0562 28.9811C67.3223 27.2538 66.9555 25.3928 66.979 23.5161C66.9564 21.6397 67.3237 19.7789 68.0575 18.0517C68.7913 16.3245 69.8757 14.7684 71.242 13.482C72.5608 12.1252 74.1406 11.0494 75.8862 10.3194C77.6319 9.58943 79.5072 9.22033 81.3993 9.23436C83.2021 9.21034 84.9917 9.5449 86.6641 10.2186C88.3365 10.8923 89.8583 11.8917 91.141 13.1588L88.4016 15.9443C86.5256 14.1313 84.0079 13.1353 81.3993 13.1742C80.0461 13.1575 78.7042 13.4226 77.459 13.9525C76.2137 14.4824 75.0923 15.2655 74.166 16.2521C73.2033 17.2072 72.4439 18.3472 71.9334 19.6035C71.423 20.8598 71.1721 22.2065 71.1958 23.5623C71.1845 24.9027 71.4415 26.2318 71.9516 27.4714C72.4617 28.7109 73.2146 29.8359 74.166 30.7802C76.0718 32.6794 78.6437 33.7598 81.3341 33.7915C84.0245 33.8231 86.621 32.8034 88.5709 30.9494C89.7781 29.6274 90.5187 27.9462 90.6793 26.1632H81.4454V22.2234H94.5114C94.6398 23.0169 94.6913 23.8209 94.6653 24.6242C94.7466 26.2869 94.4898 27.9489 93.9105 29.5096C93.3312 31.0702 92.4414 32.4972 91.2949 33.7042C90.0202 35.0314 88.4802 36.075 86.7751 36.7671C85.0701 37.4592 83.2383 37.7842 81.3993 37.721ZM111.779 35.1047C110.025 36.7856 107.69 37.724 105.261 37.724C102.832 37.724 100.497 36.7856 98.7436 35.1047C97.8708 34.2585 97.1835 33.2401 96.7251 32.1141C96.2668 30.9881 96.0475 29.7792 96.0812 28.564C96.0485 27.3489 96.2682 26.1403 96.7265 25.0145C97.1847 23.8886 97.8716 22.8701 98.7436 22.0233C100.499 20.346 102.833 19.41 105.261 19.41C107.689 19.41 110.023 20.346 111.779 22.0233C112.651 22.8701 113.338 23.8886 113.796 25.0145C114.254 26.1403 114.474 27.3489 114.441 28.564C114.473 29.7803 114.251 30.99 113.79 32.116C113.329 33.242 112.639 34.2598 111.763 35.1047H111.779ZM101.622 32.5346C102.088 33.0327 102.652 33.4297 103.278 33.7012C103.904 33.9726 104.579 34.1127 105.261 34.1127C105.944 34.1127 106.619 33.9726 107.245 33.7012C107.871 33.4297 108.434 33.0327 108.901 32.5346C109.409 32.009 109.808 31.3869 110.072 30.7049C110.336 30.023 110.461 29.2951 110.44 28.564C110.463 27.8305 110.338 27.0999 110.074 26.4153C109.809 25.7307 109.411 25.106 108.901 24.578C108.428 24.0851 107.861 23.6928 107.233 23.4248C106.605 23.1568 105.929 23.0186 105.246 23.0186C104.563 23.0186 103.887 23.1568 103.259 23.4248C102.631 23.6928 102.063 24.0851 101.591 24.578C101.081 25.106 100.682 25.7307 100.418 26.4153C100.154 27.0999 100.029 27.8305 100.052 28.564C100.032 29.2961 100.16 30.0247 100.427 30.7067C100.694 31.3887 101.095 32.0103 101.606 32.5346H101.622ZM131.816 35.1047C130.063 36.7856 127.728 37.724 125.299 37.724C122.87 37.724 120.535 36.7856 118.781 35.1047C117.908 34.2585 117.221 33.2401 116.763 32.1141C116.304 30.9881 116.085 29.7792 116.119 28.564C116.086 27.3489 116.306 26.1403 116.764 25.0145C117.222 23.8886 117.909 22.8701 118.781 22.0233C120.535 20.3425 122.87 19.4041 125.299 19.4041C127.728 19.4041 130.063 20.3425 131.816 22.0233C132.688 22.8701 133.375 23.8886 133.834 25.0145C134.292 26.1403 134.512 27.3489 134.479 28.564C134.512 29.7792 134.293 30.9881 133.835 32.1141C133.377 33.2401 132.689 34.2585 131.816 35.1047ZM121.659 32.5346C122.125 33.0327 122.689 33.4297 123.315 33.7012C123.941 33.9726 124.616 34.1127 125.299 34.1127C125.981 34.1127 126.656 33.9726 127.282 33.7012C127.908 33.4297 128.472 33.0327 128.938 32.5346C129.447 32.009 129.845 31.3869 130.11 30.7049C130.374 30.023 130.499 29.2951 130.477 28.564C130.5 27.8305 130.376 27.0999 130.111 26.4153C129.847 25.7307 129.448 25.106 128.938 24.578C128.466 24.0851 127.898 23.6928 127.27 23.4248C126.642 23.1568 125.966 23.0186 125.283 23.0186C124.6 23.0186 123.925 23.1568 123.296 23.4248C122.668 23.6928 122.101 24.0851 121.628 24.578C121.119 25.106 120.72 25.7307 120.455 26.4153C120.191 27.0999 120.067 27.8305 120.089 28.564C120.07 29.2961 120.197 30.0247 120.464 30.7067C120.731 31.3887 121.132 32.0103 121.644 32.5346H121.659ZM144.99 45.9392C143.145 45.9978 141.337 45.422 139.865 44.3078C138.559 43.3258 137.53 42.0212 136.88 40.5219L140.389 39.0599C140.77 39.9559 141.368 40.7436 142.128 41.353C142.941 42.0086 143.961 42.3524 145.005 42.3225C145.668 42.3628 146.331 42.26 146.949 42.0209C147.568 41.7819 148.128 41.4124 148.591 40.9375C149.518 39.819 149.976 38.3849 149.869 36.9361V35.6126H149.73C149.144 36.3091 148.403 36.8595 147.567 37.2201C146.731 37.5808 145.822 37.7417 144.913 37.6902C143.758 37.6937 142.614 37.4575 141.554 36.9966C140.495 36.5357 139.542 35.8601 138.757 35.0124C137.905 34.1714 137.233 33.1664 136.78 32.058C136.328 30.9496 136.105 29.761 136.126 28.564C136.104 27.3601 136.326 26.1642 136.779 25.0482C137.231 23.9322 137.904 22.9191 138.757 22.0695C139.54 21.2183 140.492 20.5393 141.552 20.0756C142.612 19.612 143.756 19.3738 144.913 19.3763C145.892 19.3746 146.859 19.5901 147.745 20.0073C148.511 20.3418 149.194 20.841 149.746 21.4693H149.884V20.0073H153.701V36.3975C153.801 37.694 153.636 38.9974 153.215 40.2279C152.795 41.4585 152.127 42.5901 151.254 43.5537C150.422 44.3495 149.439 44.9706 148.363 45.3803C147.288 45.79 146.141 45.98 144.99 45.9392ZM145.267 34.1198C145.924 34.1342 146.577 34.0038 147.178 33.7378C147.779 33.4719 148.314 33.0768 148.745 32.5808C149.695 31.4926 150.195 30.0843 150.146 28.641C150.203 27.1733 149.702 25.7383 148.745 24.6242C148.315 24.1273 147.78 23.7317 147.178 23.4657C146.577 23.1996 145.924 23.0697 145.267 23.0852C144.592 23.0714 143.922 23.2014 143.301 23.4668C142.68 23.7322 142.122 24.1267 141.666 24.6242C140.648 25.6983 140.095 27.1307 140.127 28.6102C140.111 29.3359 140.239 30.0575 140.503 30.7337C140.767 31.4098 141.162 32.027 141.666 32.55C142.12 33.0523 142.676 33.4521 143.297 33.7227C143.918 33.9934 144.59 34.1287 145.267 34.1198ZM160.488 10.2655V37.1669H156.471V10.2655H160.488ZM171.507 37.721C170.304 37.7519 169.107 37.5341 167.993 37.0813C166.878 36.6285 165.868 35.9503 165.028 35.0893C164.175 34.2346 163.504 33.2155 163.057 32.0938C162.61 30.972 162.396 29.7712 162.427 28.564C162.381 27.3539 162.58 26.147 163.011 25.0154C163.442 23.8837 164.096 22.8504 164.935 21.9772C165.726 21.1437 166.682 20.4846 167.742 20.0421C168.802 19.5995 169.943 19.3832 171.091 19.4071C172.147 19.3959 173.195 19.6001 174.169 20.0073C175.047 20.3616 175.847 20.8844 176.524 21.5462C177.105 22.1073 177.621 22.732 178.063 23.4084C178.42 23.9796 178.724 24.5823 178.971 25.209L179.386 26.2555L167.075 31.3188C167.447 32.1743 168.07 32.897 168.861 33.3915C169.652 33.886 170.575 34.1292 171.507 34.089C172.414 34.0914 173.306 33.8588 174.096 33.4138C174.886 32.9687 175.548 32.3265 176.016 31.5496L179.094 33.6273C178.308 34.7511 177.303 35.7039 176.139 36.4282C174.755 37.3029 173.144 37.7524 171.507 37.721ZM166.367 28.287L174.554 24.8858C174.302 24.2861 173.851 23.7916 173.277 23.4854C172.634 23.1224 171.906 22.9365 171.168 22.9467C169.916 22.9792 168.727 23.5046 167.859 24.4088C167.34 24.9054 166.937 25.5106 166.679 26.181C166.421 26.8514 166.315 27.5705 166.367 28.287ZM200.424 37.721C198.716 37.7505 197.019 37.4345 195.436 36.7919C193.853 36.1494 192.416 35.1936 191.212 33.9819C190.007 32.7702 189.06 31.3276 188.427 29.7407C187.794 28.1538 187.488 26.4554 187.528 24.7473C187.488 23.0393 187.794 21.3408 188.427 19.7539C189.06 18.167 190.007 16.7245 191.212 15.5128C192.416 14.3011 193.853 13.3453 195.436 12.7027C197.019 12.0602 198.716 11.7442 200.424 11.7737C202.153 11.7196 203.872 12.057 205.452 12.7605C207.033 13.4641 208.434 14.5156 209.55 15.8366L207.334 17.9912C206.514 16.9599 205.463 16.1367 204.265 15.5885C203.067 15.0403 201.756 14.7825 200.44 14.8363C199.172 14.8077 197.913 15.0357 196.736 15.5064C195.559 15.9772 194.489 16.681 193.591 17.5757C192.658 18.5145 191.928 19.6362 191.449 20.8704C190.969 22.1045 190.75 23.4245 190.806 24.7473C190.75 26.0702 190.969 27.3901 191.449 28.6243C191.928 29.8585 192.658 30.9802 193.591 31.919C194.489 32.8136 195.559 33.5175 196.736 33.9882C197.913 34.459 199.172 34.687 200.44 34.6584C201.91 34.6749 203.366 34.3597 204.698 33.7362C206.03 33.1127 207.205 32.197 208.135 31.0572L210.351 33.2733C209.19 34.6608 207.734 35.7705 206.088 36.5206C204.314 37.3397 202.378 37.7499 200.424 37.721ZM216.307 37.1669H213.121V12.3123H216.307V37.1669ZM221.508 22.208C223.178 20.5502 225.435 19.6198 227.787 19.6198C230.14 19.6198 232.397 20.5502 234.067 22.208C234.883 23.0699 235.521 24.0847 235.943 25.194C236.366 26.3033 236.565 27.4852 236.529 28.6717C236.565 29.8583 236.366 31.0402 235.943 32.1495C235.521 33.2588 234.883 34.2736 234.067 35.1355C232.397 36.7933 230.14 37.7237 227.787 37.7237C225.435 37.7237 223.178 36.7933 221.508 35.1355C220.692 34.2736 220.054 33.2588 219.632 32.1495C219.209 31.0402 219.01 29.8583 219.046 28.6717C219.01 27.4852 219.209 26.3033 219.632 25.194C220.054 24.0847 220.692 23.0699 221.508 22.208ZM223.878 33.1348C224.38 33.6653 224.985 34.0878 225.656 34.3766C226.327 34.6653 227.049 34.8143 227.78 34.8143C228.51 34.8143 229.233 34.6653 229.903 34.3766C230.574 34.0878 231.179 33.6653 231.681 33.1348C232.238 32.5373 232.67 31.835 232.953 31.0688C233.236 30.3025 233.363 29.4877 233.328 28.6717C233.363 27.8558 233.236 27.041 232.953 26.2747C232.67 25.5085 232.238 24.8062 231.681 24.2087C231.179 23.6782 230.574 23.2557 229.903 22.9669C229.233 22.6782 228.51 22.5292 227.78 22.5292C227.049 22.5292 226.327 22.6782 225.656 22.9669C224.985 23.2557 224.38 23.6782 223.878 24.2087C223.322 24.8062 222.889 25.5085 222.607 26.2747C222.324 27.041 222.196 27.8558 222.232 28.6717C222.201 29.4862 222.331 30.2988 222.617 31.0623C222.902 31.8258 223.336 32.525 223.894 33.1194L223.878 33.1348ZM254.181 37.1669H251.103V34.8123H251.011C250.463 35.7066 249.688 36.4395 248.764 36.9361C247.805 37.4916 246.717 37.7837 245.609 37.7825C244.709 37.8441 243.808 37.7016 242.971 37.3659C242.134 37.0301 241.384 36.5097 240.776 35.8434C239.611 34.3688 239.025 32.5185 239.13 30.6416V20.1765H242.315V30.0568C242.315 33.2271 243.716 34.8123 246.517 34.8123C247.139 34.8317 247.757 34.7022 248.319 34.4345C248.881 34.1668 249.372 33.7687 249.749 33.2733C250.574 32.2269 251.015 30.928 250.995 29.5951V20.1765H254.181V37.1669ZM265 37.721C263.919 37.7246 262.851 37.4939 261.868 37.0449C260.885 36.5959 260.011 35.9393 259.306 35.1201C257.71 33.3578 256.856 31.0481 256.92 28.6717C256.856 26.2954 257.71 23.9856 259.306 22.2234C260.011 21.4042 260.885 20.7476 261.868 20.2986C262.851 19.8496 263.919 19.6189 265 19.6225C266.211 19.6034 267.407 19.8892 268.478 20.4536C269.42 20.9273 270.217 21.6447 270.787 22.5312H270.925L270.787 20.1765V12.3123H273.972V37.1669H270.894V34.8123H270.756C270.186 35.6988 269.389 36.4162 268.447 36.8899C267.385 37.4493 266.2 37.7349 265 37.721ZM265.523 34.8123C266.243 34.8228 266.957 34.68 267.618 34.3934C268.279 34.1069 268.871 33.6831 269.355 33.1502C270.438 31.918 270.991 30.3089 270.894 28.6717C270.991 27.0346 270.438 25.4255 269.355 24.1933C268.868 23.6575 268.274 23.2294 267.611 22.9365C266.949 22.6436 266.232 22.4923 265.508 22.4923C264.784 22.4923 264.067 22.6436 263.405 22.9365C262.742 23.2294 262.148 23.6575 261.66 24.1933C261.123 24.7994 260.71 25.5056 260.446 26.2714C260.182 27.0373 260.072 27.8478 260.122 28.6564C260.072 29.4649 260.182 30.2754 260.446 31.0413C260.71 31.8071 261.123 32.5134 261.66 33.1194C262.146 33.6618 262.741 34.0937 263.408 34.3858C264.074 34.6779 264.796 34.8233 265.523 34.8123Z" fill="#5F6368"/>
</g>
<defs>
<clipPath id="clip0_6236_10461">
<rect width="273.972" height="48" fill="white"/>
</clipPath>
</defs>
</svg>
