<svg width="262" height="56" viewBox="0 0 262 56" fill="none" xmlns="http://www.w3.org/2000/svg">
<g clip-path="url(#clip0_6301_5986)">
<path d="M262 25.318V20.7103H256.278V13.5472L256.086 13.6065L250.711 15.2508L250.605 15.283V20.7106H242.123V17.687C242.123 16.2791 242.437 15.2017 243.058 14.4831C243.674 13.7732 244.555 13.4123 245.679 13.4123C246.487 13.4123 247.324 13.6027 248.166 13.978L248.377 14.0723V9.21981L248.278 9.18331C247.492 8.90097 246.424 8.75879 245.1 8.75879C243.431 8.75879 241.914 9.12198 240.592 9.84177C239.269 10.5626 238.228 11.5916 237.498 12.8999C236.772 14.2066 236.403 15.7159 236.403 17.3861V20.7103H232.419V25.318H236.403V44.7293H242.123V25.318H250.605V37.6535C250.605 42.7339 253.002 45.3084 257.728 45.3084C258.504 45.3084 259.322 45.2174 260.156 45.0392C261.006 44.8563 261.584 44.6735 261.925 44.4784L262 44.4338V39.7835L261.768 39.9374C261.457 40.1442 261.071 40.3132 260.617 40.4389C260.162 40.5669 259.782 40.631 259.488 40.631C258.381 40.631 257.561 40.3327 257.053 39.744C256.539 39.1499 256.278 38.111 256.278 36.6577V25.318H262ZM219.646 40.6318C217.57 40.6318 215.933 39.9434 214.78 38.5875C213.619 37.2247 213.031 35.2818 213.031 32.8132C213.031 30.2663 213.619 28.273 214.781 26.8861C215.935 25.5084 217.556 24.8091 219.6 24.8091C221.583 24.8091 223.161 25.4769 224.292 26.7951C225.429 28.1201 226.006 30.0975 226.006 32.6741C226.006 35.2823 225.463 37.2858 224.394 38.626C223.332 39.9561 221.734 40.6318 219.646 40.6318ZM219.9 20.1317C215.94 20.1317 212.794 21.2923 210.551 23.5811C208.309 25.8703 207.173 29.0381 207.173 32.9975C207.173 36.7581 208.282 39.783 210.471 41.9867C212.659 44.1912 215.637 45.3079 219.321 45.3079C223.16 45.3079 226.244 44.1311 228.486 41.8106C230.727 39.4926 231.863 36.3546 231.863 32.4878C231.863 28.6683 230.797 25.6209 228.694 23.4319C226.591 21.2418 223.631 20.1317 219.9 20.1317ZM197.951 20.1317C195.257 20.1317 193.029 20.8208 191.326 22.1796C189.613 23.5464 188.745 25.3391 188.745 27.5083C188.745 28.6359 188.932 29.6375 189.301 30.4871C189.672 31.3394 190.247 32.0899 191.01 32.7197C191.768 33.3444 192.937 33.9988 194.487 34.6646C195.79 35.2007 196.761 35.6541 197.378 36.0115C197.982 36.3617 198.41 36.7138 198.651 37.0567C198.886 37.3922 199.005 37.8515 199.005 38.4182C199.005 40.0319 197.797 40.8171 195.31 40.8171C194.388 40.8171 193.336 40.6244 192.184 40.2448C191.039 39.8709 189.959 39.3233 188.982 38.6212L188.744 38.4509V43.9575L188.831 43.9981C189.641 44.3717 190.661 44.6867 191.864 44.9346C193.064 45.1827 194.154 45.3089 195.102 45.3089C198.025 45.3089 200.38 44.6165 202.097 43.2497C203.826 41.8734 204.702 40.0385 204.702 37.7942C204.702 36.1752 204.231 34.7868 203.301 33.6671C202.378 32.5565 200.775 31.5368 198.54 30.6356C196.759 29.9209 195.619 29.3275 195.148 28.8721C194.694 28.4321 194.464 27.8099 194.464 27.0219C194.464 26.3234 194.748 25.7638 195.332 25.3107C195.92 24.8552 196.739 24.6236 197.766 24.6236C198.719 24.6236 199.694 24.7741 200.664 25.0691C201.633 25.3641 202.484 25.7593 203.194 26.2426L203.428 26.4023V21.1787L203.338 21.1402C202.683 20.8591 201.818 20.6186 200.769 20.4234C199.724 20.2296 198.776 20.1317 197.951 20.1317ZM173.834 40.6318C171.759 40.6318 170.121 39.9434 168.968 38.5875C167.807 37.2247 167.22 35.2823 167.22 32.8132C167.22 30.2663 167.808 28.273 168.969 26.8861C170.123 25.5084 171.743 24.8091 173.788 24.8091C175.771 24.8091 177.349 25.4769 178.481 26.7951C179.617 28.1201 180.194 30.0975 180.194 32.6741C180.194 35.2823 179.651 37.2858 178.582 38.626C177.519 39.9561 175.923 40.6318 173.834 40.6318ZM174.089 20.1317C170.127 20.1317 166.981 21.2923 164.74 23.5811C162.498 25.8703 161.361 29.0381 161.361 32.9975C161.361 36.7596 162.471 39.783 164.659 41.9867C166.848 44.1912 169.825 45.3079 173.51 45.3079C177.348 45.3079 180.432 44.1311 182.674 41.8106C184.916 39.4926 186.052 36.3546 186.052 32.4878C186.052 28.6683 184.986 25.6209 182.882 23.4319C180.778 21.2418 177.819 20.1317 174.089 20.1317ZM152.679 24.8699V20.7103H147.029V44.7288H152.679V32.4424C152.679 30.3532 153.153 28.6369 154.087 27.3405C155.01 26.0596 156.24 25.4105 157.741 25.4105C158.25 25.4105 158.821 25.4944 159.44 25.6604C160.052 25.8254 160.496 26.0046 160.757 26.1932L160.995 26.3653V20.6693L160.903 20.63C160.377 20.4065 159.633 20.2937 158.691 20.2937C157.271 20.2937 156.001 20.7499 154.912 21.6481C153.957 22.4376 153.267 23.5201 152.739 24.8699H152.679ZM136.911 20.1317C134.319 20.1317 132.007 20.6875 130.041 21.7832C128.07 22.8814 126.546 24.4492 125.509 26.4428C124.477 28.4316 123.953 30.7547 123.953 33.3454C123.953 35.6148 124.461 37.6974 125.465 39.5329C126.47 41.3714 127.893 42.8097 129.693 43.8072C131.491 44.8035 133.569 45.3087 135.87 45.3087C138.555 45.3087 140.847 44.7719 142.685 43.7132L142.76 43.6706V38.4945L142.522 38.6678C141.69 39.2743 140.759 39.7584 139.758 40.1072C138.76 40.4557 137.849 40.6318 137.051 40.6318C134.834 40.6318 133.054 39.9381 131.762 38.5705C130.468 37.2011 129.811 35.2782 129.811 32.8586C129.811 30.4237 130.496 28.4514 131.845 26.9961C133.19 25.5451 134.973 24.8091 137.144 24.8091C139.001 24.8091 140.811 25.4379 142.523 26.6798L142.76 26.8519V21.3979L142.683 21.3549C142.039 20.9942 141.16 20.6964 140.069 20.4706C138.983 20.2453 137.921 20.1317 136.911 20.1317ZM120.062 20.7106H114.412V44.7288H120.062V20.7106ZM117.295 10.4787C116.365 10.4787 115.554 10.7952 114.887 11.4225C114.218 12.0516 113.879 12.8436 113.879 13.7783C113.879 14.6983 114.214 15.4759 114.877 16.0882C115.535 16.6988 116.349 17.0082 117.295 17.0082C118.24 17.0082 119.057 16.6988 119.723 16.0892C120.394 15.4759 120.734 14.6986 120.734 13.7783C120.734 12.8763 120.403 12.0924 119.751 11.4479C119.099 10.8046 118.273 10.4787 117.295 10.4787ZM103.198 18.9385V44.7288H108.964V11.2139H100.983L90.84 36.1078L80.9964 11.2139H72.6912V44.7285H78.1096V18.936H78.2956L88.6903 44.7288H92.7794L103.012 18.9385H103.198Z" fill="#706D6E"/>
<path d="M26.5785 26.5927H0V0.0141602H26.5785V26.5927Z" fill="#F1511B"/>
<path d="M55.9242 26.5929H29.3462V0.0144043H55.9242V26.5929Z" fill="#80CC28"/>
<path d="M26.5777 55.9491H0V29.3708H26.5777V55.9491Z" fill="#00ADEF"/>
<path d="M55.9242 55.9491H29.3462V29.3708H55.9242V55.9491Z" fill="#FBBC09"/>
</g>
<defs>
<clipPath id="clip0_6301_5986">
<rect width="262" height="55.9632" fill="white"/>
</clipPath>
</defs>
</svg>
